<svg xmlns="http://www.w3.org/2000/svg"><!-- Published Game-icons.net and Lucide assets. See icon-sources/README.md for per-icon authors, pinned sources and licenses. Only backgrounds and palette are adapted. --><symbol id="kelp" viewBox="0 0 512 512" fill="currentColor"><path fill="currentColor" d="M62 19c-22.537 0-41 18.463-41 41s18.463 41 41 41 41-18.463 41-41-18.463-41-41-41zm170.977 9.97c-16.978-.922-52.997 72.088-53.834 113.33-.66 32.469 37.967 56.928 38.736 89.393.857 36.173-28.546 58.95-38.397 101.532-4.527 15.463 7.926 38.252 15.096 49.978 5.663 9.118 12.2 16.656 18.686 21.809-6.163-28.894-5.196-59.292-.19-87.715 3.262-18.52 13.862-33.667 22.492-47.83 8.63-14.163 15.138-26.884 14.37-39.817-.804-13.533-10.378-26.05-22.053-39.97-11.676-13.92-25.352-29.016-28.285-49.514-2.168-17.163 6.516-40.209 12.607-57.103l16.598 6.964c-6.53 15.961-11.005 30.288-11.387 47.59 1.947 13.606 12.458 26.428 24.258 40.496 11.8 14.069 24.992 29.612 26.23 50.469 1.15 19.365-8.029 35.584-16.966 50.252C242 293.502 233.15 307.076 230.8 320.42c-5.584 31.704-5.592 65.596 3.924 95.435 3.243 10.172 9.433 22.86 16.734 35.637a64.418 64.418 0 0 0 2.748-7.888c2.602-9.482 2.37-19.766-.57-24.102l14.898-10.104c8.174 12.053 6.356 26.848 3.03 38.97-1.664 6.06-3.884 11.553-6.323 16.048-.948 1.746-1.924 3.336-2.998 4.807a401.083 401.083 0 0 0 6.057 9.13A376.253 376.253 0 0 0 279.604 494h32.675c11.057-41.657-56.394-96.948-56.656-147.092-.218-41.702 40.04-78.813 34.764-120.181-4.188-32.838-41.059-53.739-50.657-85.42-10.862-35.856 8.339-109.356-5.959-112.237a5.548 5.548 0 0 0-.794-.1zM85 60c0 12.81-10.19 23-23 23S39 72.81 39 60c0-.124.008-.247.01-.371 2.796 2.023 6.204 3.236 9.865 3.236 9.282 0 17-7.718 17-17 0-3.219-.945-6.24 4.344-7.194C75.507 37.716 85 47.638 85 60zm247.488 17.32c-18.119 0-33 14.882-33 33 0 18.12 14.881 33 33 33 18.12 0 33-14.88 33-33 0-18.118-14.88-33-33-33zm5.315 18.96c5.7 2.11 9.685 7.532 9.685 14.04 0 8.391-6.609 15-15 15-7.773 0-14.005-5.676-14.883-13.181 1.7.688 3.544 1.08 5.467 1.08 8.119 0 14.893-6.774 14.893-14.893 0-.695-.066-1.375-.162-2.047zm-37.315 45.04c-9.282 0-17 7.718-17 17 0 9.283 7.718 17 17 17 9.283 0 17-7.717 17-17 0-9.282-7.717-17-17-17zm66.848 24.186a3.402 3.402 0 0 0-.596.039c-10.503 1.68 19.336 71.981 9.67 106.182-5.636 19.943-32.977 29.52-37.213 49.808-4.903 23.485 16.947 46.093 16.408 70.078-.733 32.688-42.238 68.245-22.625 94.405 5.256 7.009 11.776-1.035 18.069-5.704a305.408 305.408 0 0 0 13.517-13.082 47.85 47.85 0 0 1-4.837-6.308 51.018 51.018 0 0 1-7.993-30.42l17.973.986c-.454 8.28 2.082 14.906 5.164 19.703.595.927 1.21 1.753 1.82 2.522 1.635-2.015 3.157-3.972 4.41-5.776 6.183-8.891 11.334-18.161 11.418-25.935.152-13.948-9.391-28.598-20.005-44.688-10.614-16.089-22.44-34.122-19.098-55.761 2.02-13.086 11.901-20.663 19.61-26.848 7.708-6.185 13.486-11.354 14.833-16.244l17.354 4.781c-3.455 12.54-13.41 19.473-20.924 25.502-7.514 6.029-12.346 10.775-13.084 15.557-2.083 13.492 5.89 27.273 16.332 43.101 10.442 15.829 23.216 33.198 22.982 54.795-.158 14.627-8.032 26.515-14.638 36.016-8.105 11.656-20.935 24.708-32.735 35.424-.136.124-.268.238-.404.361h34.926c9.11-3.612 17.256-8.636 23.16-14.686 20.682-21.19 11.655-57.69 4.309-88.726-4.341-18.338-33.18-41.566-32.676-66.156.405-19.792 28.159-32.332 28.457-52.125.591-39.28-40.65-106.57-53.584-106.801zm-288.252 5.137c-.202.01-.4.033-.59.068-10.503 1.94 12.938 49.915 9.668 74.863-2.726 20.794-21.818 37.342-23.867 58.213C61.632 330.902 81.385 356.79 80 384c-1.724 33.881-50.665 71.441-31.268 97.729 4.765-4.382 10.554-10.11 16.575-16.625 13.477-14.583 27.891-33.125 33.732-46.319 5.181-11.703 6.3-26.25 4.834-40.08-4.093-21.186-19.261-39.903-20.545-59.387-1.076-20.698 9.154-37.472 11.904-52.1 2.151-11.44 5.143-36.394 5.143-36.394l17.875 2.117s-2.876 24.561-5.328 37.604c-3.574 19.007-12.318 34.359-11.617 47.838 3.083 21.238 18.184 39.242 20.468 58.424 1.699 16.013.694 33.525-6.273 49.263-7.594 17.154-22.785 35.897-36.975 51.25a330.056 330.056 0 0 1-13.828 14.106c18.087 3.662 43.034-6.147 55.946-17.62 28.862-25.645 32.23-64.006 20.91-108.853-7.237-28.668-22.264-48.927-20.48-74.678 1.085-15.683 27.202-25.725 18.622-43.33-14.053-28.836-47.91-76.956-60.611-76.302zM458.82 289.986c-7.618 0-14.66 2.639-20.267 7.035a15.268 15.268 0 0 0-5.24 5.118c-4.674 5.698-7.493 12.965-7.493 20.847 0 18.12 14.882 33 33 33 18.12 0 33-14.88 33-33 0-18.118-14.88-33-33-33zm1.924 18.133c7.453.924 13.076 7.131 13.076 14.867 0 8.391-6.609 15-15 15-7.843 0-14.127-5.776-14.914-13.382.677.097 1.363.164 2.063.164 8.118 0 14.892-6.774 14.892-14.893 0-.594-.046-1.178-.117-1.756zM172.037 379.66c-3.674 46.106 5.923 85.524 35.01 114.34h50.219a432.13 432.13 0 0 1-3.82-5.482c-12.572-18.375-25.576-40.12-33.094-59.407-17.026-4.533-30.563-19.501-41.065-36.412a159.892 159.892 0 0 1-7.25-13.039z" /></symbol><symbol id="timber" viewBox="0 0 512 512" fill="currentColor"><path fill="currentColor" d="M353.86 48.45c-10.626-.16-20.45 3.456-29.14 13.253l-.193.217-50.586 50.098.628.703c3.395 3.7 3.106 9.463-.642 12.804-3.748 3.342-9.505 2.97-12.793-.825l-5.985-6.712c-.784 1.096-1.627 2.16-2.544 3.178-5.116 5.68-11.746 9.448-18.688 11.023l5.438 20.302c2.54 8.98-8.582 15.417-15.102 8.738l-41.2 40.803c1.41-.082 2.83-.135 4.26-.135 40.63 0 73.616 33.616 73.616 74.672 0 .803-.036 1.598-.06 2.395l141.94-153.74c8.252-10.316 9.687-20.888 6.985-31.832C407.08 82.4 399.6 71.29 389.653 62.967c-3.085-2.583-6.396-4.885-9.835-6.854L258.56 182.725c-3.418 3.685-9.193 3.856-12.824.38-3.63-3.478-3.71-9.255-.175-12.83l115.932-121.05c-1.843-.34-3.68-.584-5.494-.694-.715-.042-1.428-.07-2.137-.08zM232.31 85.597c-4.224-.048-8.876 1.842-12.583 5.96-6.327 7.024-5.918 16.11-.913 20.62 5.006 4.508 14.088 3.968 20.415-3.057 6.325-7.024 5.917-16.112.91-20.62-1.877-1.69-4.328-2.672-6.992-2.867-.277-.02-.556-.032-.837-.035zm-27.95 63.94c-7.19-.12-13.63 2.222-19.577 8.925l-.19.217-99.734 98.77c10.89.53 20.967 4.222 29.386 10.167 1.406-11.834 5.547-22.84 11.785-32.332l.44-.67 6.39-8.21c1.915-2.138 3.963-4.148 6.11-6.05l70.907-70.224c-1.372-.268-2.734-.453-4.07-.534-.486-.03-.968-.05-1.448-.057zm193.3 14.415c-2.226.018-4.423.188-6.588.52L245.744 321.88c-2.968 3.93-6.313 7.544-9.976 10.806l-5.715 6.19c9.9 2.162 19.137 6.16 27.34 11.628-.004-.254-.02-.505-.02-.76 0-12.38 4.545-23.756 12.03-32.496l-.087-.086 1.358-1.344c1.008-1.09 2.06-2.135 3.16-3.13L381.01 206.545c8.52-9.363 20.055-13.314 30.816-12.662 10.908.66 21.093 5.423 29.33 12.316 8.238 6.892 14.684 16.035 17.278 26.538.788 3.194 1.158 6.54 1.078 9.922 4.62-9.422 4.9-19.095 2.242-28.918-3.484-12.87-12.614-25.674-24.47-34.967v.002c-11.194-8.77-24.658-14.314-37.27-14.79-.79-.028-1.573-.04-2.354-.034zm11.926 47.852c-5.712-.106-10.696 1.69-15.463 7.064l-.193.216-82.07 81.28c22.277 2.517 40.072 20.28 43.12 42.585l82.31-89.153c4.454-5.58 5.124-10.833 3.665-16.742-1.468-5.945-5.675-12.3-11.35-17.05-5.678-4.75-12.668-7.778-18.867-8.153-.387-.024-.77-.04-1.152-.047zm-222.274 8.097c-4.898 0-9.644.647-14.167 1.85 1.964-.262 3.962-.41 5.994-.41 24.715 0 45.067 19.99 45.067 44.566 0 24.576-20.355 44.567-45.068 44.567-24.718 0-45.07-19.992-45.07-44.567 0-2.83.282-5.593.797-8.277-2.044 5.915-3.166 12.284-3.166 18.94 0 31.482 24.873 56.668 55.613 56.668s55.61-25.185 55.61-56.668c0-31.482-24.87-56.668-55.61-56.668zm-8.173 19.44c-15.12 0-27.07 11.857-27.07 26.566 0 14.71 11.945 26.567 27.07 26.567 15.117 0 27.067-11.858 27.067-26.567 0-14.71-11.944-26.566-27.068-26.566zm-3.388 7.357c8.742 0 16.023 7.276 16.023 16.02s-7.285 16.02-16.023 16.02c-8.742 0-16.025-7.275-16.025-16.02 0-8.743 7.287-16.02 16.025-16.02zm-93.61 28.68c-21.25 0-38.427 17.364-38.427 39.2 0 21.835 17.177 39.2 38.426 39.2 21.25 0 38.426-17.364 38.426-39.2 0-3.01-.338-5.933-.957-8.74-1.208-2.858-2.23-5.813-3.08-8.838-6.297-12.877-19.314-21.623-34.39-21.623zm-.36 11.016c15.59 0 27.085 14.1 27.085 29.823 0 15.724-11.498 29.82-27.086 29.82-15.59 0-27.087-14.098-27.087-29.82 0-15.727 11.5-29.824 27.088-29.824zm372.58.325c-6.907-.118-13.068 2.118-18.79 8.567l-.193.22-96.345 95.415c27.285 1.628 49.25 23.576 51.547 50.926l96.64-104.672c5.384-6.735 6.24-13.283 4.48-20.42-.234-.944-.527-1.893-.868-2.844l-63.383 66.342c-3.41 3.703-9.196 3.888-12.837.41-3.64-3.48-3.72-9.267-.175-12.844l65.103-68.144c.345-.37.72-.71 1.122-1.018-.786-.76-1.604-1.497-2.447-2.203-6.715-5.62-14.988-9.227-22.463-9.68-.467-.028-.93-.046-1.39-.054zm-372.9 14.73c-7.59 0-13.74 7.046-13.74 15.738 0 8.69 6.15 15.736 13.74 15.736s13.743-7.045 13.743-15.736c0-8.69-6.152-15.737-13.742-15.737zm224.952 16.6c-17.17 0-31.04 14.004-31.04 31.694 0 17.69 13.87 31.695 31.04 31.695s31.04-14.006 31.04-31.696-13.87-31.693-31.04-31.693zm-2.285 11.155c11.398 0 19.28 10.28 19.28 21.092 0 10.814-7.884 21.09-19.28 21.09-11.4 0-19.282-10.277-19.282-21.09 0-10.814 7.883-21.092 19.28-21.092zm-163.378 5.13l-14.027 15.192c-2.17 2.835-4.59 5.46-7.235 7.838l-3.986 4.317c9.624 5.793 17.842 13.746 24.006 23.185 6.715-14.72 17.602-27.106 31.113-35.588-11.134-2.634-21.307-7.826-29.87-14.946zm72.31 20.704c-34.83 0-63.015 28.553-63.015 64.192 0 35.64 28.186 64.194 63.016 64.194s63.017-28.554 63.017-64.194c0-35.638-28.188-64.193-63.017-64.193zM68.68 370.114C42.442 374.65 22.5 397.775 22.5 425.96c0 14.03 4.95 26.802 13.146 36.66-5.09-7.662-8.066-16.868-8.064-26.725v-.004c-.005-26.31 21.188-47.994 47.29-47.994 26.105 0 47.298 21.684 47.292 47.996.005 20.913-13.386 38.89-31.986 45.393 22.622-5.065 40.05-24.075 43.076-47.908-.792-4.6-1.207-9.324-1.207-14.145 0-2.07.077-4.125.226-6.16-4.7-20.763-20.513-37.028-40.71-42.11-3.065.528-6.21.817-9.422.817-4.64 0-9.146-.586-13.462-1.665zm140.48.643c27.187 0 49.2 22.702 49.2 50.203 0 27.503-22.016 50.204-49.2 50.204-27.187 0-49.2-22.702-49.2-50.203 0-27.5 22.017-50.202 49.2-50.202zm0 17.998c-17.21 0-31.2 14.195-31.2 32.205 0 18.012 13.983 32.206 31.2 32.206 17.212 0 31.2-14.195 31.2-32.205 0-18.01-13.982-32.204-31.2-32.204zm81.856 8.148c1.256 4.498 2.16 9.143 2.642 13.912 3.67-4.432 8.01-8.273 12.852-11.38-.032.002-.062.003-.094.003-5.38 0-10.554-.9-15.4-2.536zm-216.14 8.992c-16.2 0-29.295 13.238-29.29 29.995v.005c-.005 16.756 13.09 29.994 29.29 29.994 16.197 0 29.295-13.24 29.29-29.995v-.004c.005-16.756-13.093-29.994-29.29-29.994zm133.706.256c8.967 0 14.96 7.945 14.96 15.953 0 8.01-5.993 15.952-14.96 15.952-8.966 0-14.96-7.943-14.96-15.952 0-8.008 5.994-15.953 14.96-15.953zm127.203 2.664c-20.47 0-37.013 16.723-37.013 37.766 0 21.042 16.544 37.766 37.013 37.766 20.47 0 37.012-16.723 37.012-37.766 0-21.042-16.543-37.766-37.012-37.766zM71.833 422.39c8.965 0 14.958 7.943 14.958 15.952 0 8.01-5.992 15.953-14.958 15.953-8.966 0-14.96-7.944-14.96-15.953 0-8.01 5.994-15.953 14.96-15.953zm267.923 1.423c14.727 0 26.683 12.307 26.683 27.037 0 14.73-11.958 27.037-26.684 27.037-14.728 0-26.682-12.308-26.682-27.037 0-14.73 11.955-27.038 26.682-27.038zm0 18c-4.802 0-8.682 3.845-8.682 9.037s3.877 9.037 8.682 9.037c4.8 0 8.683-3.846 8.683-9.037 0-5.193-3.88-9.038-8.684-9.038z" /></symbol><symbol id="scrap" viewBox="0 0 512 512" fill="currentColor"><path fill="currentColor" d="M131.656 49.656L22.312 159l12.344 12.344 46.813-28.906 32.686-32.688-.062-.063L144 62l-12.344-12.344zm247.688 0L367 62l26.906 43.563 37.688 37.687 44.75 28.094L488.688 159 379.344 49.656zm4.906 72.688L371.094 135.5l20.687 20.688-32.81-8.594-10.97 11 21.03 21.03-33.342-8.75-10.782 10.814 21.375 21.375-33.874-8.907L87.97 418.626 66.405 472.03l53.313-21.655L416 154.095l-31.75-31.75zm-256.875.625l-31.75 31.75 10.656 10.655 21-21-8.718 33.28 10.813 10.814 21.344-21.345-8.876 33.813 10.625 10.625 21.686-21.688-9.03 34.344 45.56 45.56 31.75-31.75-115.06-115.06zm172.938 172.905l-31.75 31.75 122.75 122.75 53.375 21.563-21.657-53.313-122.717-122.75z" /></symbol><symbol id="fuel" viewBox="0 0 512 512" fill="currentColor"><path fill="currentColor" d="M374.014 53.123c-.72-.008-1.435.002-2.15.033-1.758.076-3.503.267-5.235.57-13.857 2.41-27.79 12.364-38.913 30.905-13.823 23.04-37.3 32.308-61.654 35.438-23.677 3.043-49.05 1.085-72.016.97L105 165.564V487h302V67.955c-11.04-10.112-22.205-14.706-32.986-14.832zM201.514 55l-16.873 50.617 5.235-2.617H192c4.122 0 8.278.064 12.44.145L214.485 73h99.285c4.337-6.844 9.166-12.885 14.41-18H201.514zm173.884 22.354l17.204 5.292L329 289.352v109.625l60.123 41.623-10.246 14.8-90.133-62.4H176v-.775l-40.512 60.767-14.976-9.984L183 349.275V242.068l-60.21-42.728 10.42-14.68L221.052 247H323.2l52.198-169.646zM144.713 96.602l-41.576 19.68 12.836 27.116 41.576-19.68L144.712 96.6zM201 265v110h110V265H201z" /></symbol><symbol id="plates" viewBox="0 0 512 512" fill="currentColor"><path fill="currentColor" d="M88 32v16H72V34.67L32 48v14.31l40-13.33v16.87L32 79.18V188l40-13.3V286h16V175.5l384 169v112l-384-169V346H72v-59.3L32 300v59.6l40-13.4v16.9l-40 13.3v15.2l40-13.4v16.9l-40 13.3V464l40 13.3V396h16v-17.2L282.7 464h-39.8L88 396.2V480h400V32h-16zm0 16.71L472 215.1v17.3L88 66.14V174H72V66h16zm0 298.09L351.6 464h-39.2L88 364.3V378H72v-14h16z" /></symbol><symbol id="repairKit" viewBox="0 0 512 512" fill="currentColor"><path fill="currentColor" d="M94.09 57L33 209.7V327h174V217h-87c-23.75 0-41-23-41-49s17.25-49 41-49h50.7l-24.8-62zm272.01 0L305 209.7V489h174V209.7L417.9 57zm25.9 62c23.8 0 41 23 41 49s-17.2 49-41 49-41-23-41-49 17.2-49 41-49zm-272 18c-11.6 0-23 12.8-23 31s11.4 31 23 31h169.9l24.8-62zm272 0c-11.6 0-23 12.8-23 31s11.4 31 23 31 23-12.8 23-31-11.4-31-23-31zM33 345v144h254V345z" /></symbol><symbol id="fish" viewBox="0 0 512 512" fill="currentColor"><path fill="currentColor" d="M336 32c-28.2 0-81.2 24.81-115.3 52.59C156.5 94.55 80 119.4 80 144c0 29 104.8 57.9 172.1 63.2C276.7 229 322.8 240 336 240c-12.5-12.5-25-25.1-22.2-37.6 34-8.2 69.4-24 100.5-37.9 21 23.9 53.2 43.5 65.7 43.5-16-32-16-48-16-64s16-48.05 32-64c-25.1 0-60 19.65-81.6 43.5-33.5-14.8-71.9-32.15-108.4-39.65 4.9-16.81 17.4-39.27 30-51.85zm-176 80a16 16 0 0 1 16 16 16 16 0 0 1-16 16 16 16 0 0 1-16-16 16 16 0 0 1 16-16zm16 176c12.6 12.6 25.1 35 30 51.8-36.5 7.5-74.9 24.9-108.4 39.7C76 355.6 41.1 336 16 336c16 15.9 32 48 32 64s0 32-16 64c12.5 0 44.7-19.6 65.7-43.5 31.1 13.9 66.5 29.7 100.5 37.9 2.8 12.5-9.7 25.1-22.2 37.6 13.2 0 59.3-11 83.9-32.8C327.2 457.9 432 429 432 400c0-24.6-76.5-49.4-140.7-59.4C257.2 312.8 204.2 288 176 288zm176 80a16 16 0 0 1 16 16 16 16 0 0 1-16 16 16 16 0 0 1-16-16 16 16 0 0 1 16-16z" /></symbol><symbol id="marks" viewBox="0 0 512 512" fill="currentColor"><path fill="currentColor" d="M136 25.01c-16.5 0-31.3 3.4-41.29 8.4-9.9 5-13.7 10.6-13.7 14.6 0 3.9 3.8 9.61 13.7 14.5 9.99 5 24.79 8.5 41.29 8.5s31.3-3.5 41.2-8.5c10-4.89 13.8-10.6 13.8-14.5 0-4-3.8-9.6-13.8-14.6-9.9-5-24.7-8.4-41.2-8.4zm160 32c-16.5 0-31.3 3.4-41.2 8.4-10 5-13.8 10.6-13.8 14.6 0 3.9 3.8 9.61 13.8 14.5 9.9 5 24.7 8.49 41.2 8.49 4.6 0 9-.3 13.2-.8 4.3-5.49 10.4-10.36 17.5-13.6 8.2-3.7 17.7-6.7 24.3-8.59 0-4-3.8-9.6-13.8-14.6-9.9-5-24.7-8.4-41.2-8.4zM81.01 75.4c-.4 14.66 15.48 20.64 25.49 23.6 17.9 5.2 41.1 5.2 59 0 12.8-3.66 25.4-10.72 25.5-23.6-16.1 10.63-39.6 13.49-55 13.6-19.5-1.63-39.98-3.65-54.99-13.6zM376 96.31c-16.5 0-31.3 3.4-41.2 8.49-10 4.9-13.8 10.6-13.8 14.5 0 4 3.8 9.6 13.8 14.6 9.9 5 24.7 8.4 41.2 8.4 16.5 0 31.3-3.4 41.2-8.4 10-5 13.8-10.6 13.8-14.6 0-3.9-3.8-9.6-13.8-14.5-9.9-5.09-24.7-8.49-41.2-8.49zM241 107.4v2.4c2.9 1 5.7 2.2 8.3 3.5 9 4.5 16.8 10.8 20.8 18.7 10.2 2.5 21.7 3.4 32.9 2.7v-13.9c-2.3.1-4.6.2-7 .2-18.9 0-36.1-3.7-49.3-10.3-2-1-3.9-2.1-5.7-3.3zm-159.99.1c-.34 14.6 15.52 20.6 25.49 23.6 6.8 1.9 14.4 3.2 22.2 3.6 2-5.2 5.6-9.8 10.2-13.7-12.8.3-25.7-1.3-37.4-4.6-7.79-2.3-14.69-5.2-20.49-8.9zM200 121c-16.5 0-31.3 3.5-41.2 8.4-10 5-13.8 10.6-13.8 14.6s3.8 9.6 13.8 14.6c9.9 5 24.7 8.4 41.2 8.4 16.5 0 31.3-3.4 41.2-8.4 10-5 13.8-10.6 13.8-14.6s-3.8-9.6-13.8-14.6c-9.9-4.9-24.7-8.4-41.2-8.4zM81.01 139.5c-.34 14.6 15.52 20.6 25.49 23.6 6.3 1.8 13.3 3 20.5 3.5v-13.8c-8.8-.6-17.4-2.1-25.5-4.4-7.79-2.3-14.69-5.2-20.49-8.9zM321 146.8c-.2 14.7 15.4 20.6 25.5 23.6 17.9 5.2 41.1 5.2 59 0 12.7-3.7 25.4-10.7 25.5-23.6-1.8 1.1-3.7 2.2-5.7 3.2-13.2 6.6-30.4 10.3-49.3 10.3s-36.1-3.7-49.3-10.3c-2-1-3.9-2.1-5.7-3.2zm-48 4.2v13.7c9.4 1.9 19.9 2.6 30 2v-13.8c-10.1.5-20.3-.1-30-1.9zm-128 20.4c-.5 6 2.2 10.9 5.5 13.8 4.2 3.6 11 7.3 20 9.9 17.9 5.1 41.1 5.1 59 0 9-2.6 15.8-6.3 20-9.9 4.9-4.1 5.5-8.1 5.5-13.8-1.8 1.2-3.7 2.3-5.7 3.3-13.2 6.6-30.4 10.3-49.3 10.3s-36.1-3.7-49.3-10.3c-2-1-3.9-2.1-5.7-3.3zm-63.99.1c-.34 14.6 15.52 20.6 25.49 23.6 6.3 1.8 13.3 3 20.5 3.5v-13.8c-8.8-.6-17.4-2.1-25.5-4.4-7.79-2.3-14.69-5.2-20.49-8.9zM321 178.8c-.2 14.7 15.4 20.6 25.5 23.6 17.9 5.2 41.1 5.2 59 0 12.7-3.7 25.4-10.7 25.5-23.6-5.8 3.7-12.7 6.6-20.5 8.9-21.7 6.3-47.3 6.3-69 0-7.8-2.3-14.7-5.2-20.5-8.9zm-48 4.2v13.7c9.4 1.9 19.9 2.6 30 2v-13.8c-10.1.5-20.3-.1-30-1.9zM81.01 203.5c-.34 14.6 15.52 20.6 25.49 23.6 6.3 1.8 13.3 3 20.5 3.5v-13.8c-8.8-.6-17.4-2.1-25.5-4.4-7.79-2.3-14.69-5.2-20.49-8.9zm63.99 0c-.5 6 2.2 10.8 5.5 13.7 4.2 3.6 11 7.3 20 9.9 17.9 5.1 41.1 5.1 59 0 9-2.6 15.8-6.3 20-9.9 4.9-4.1 5.5-8 5.5-13.7-5.8 3.7-12.7 6.6-20.5 8.9-21.7 6.2-47.3 6.2-69 0-7.8-2.3-14.7-5.2-20.5-8.9zm176 7.3c-.2 14.7 15.4 20.6 25.5 23.6 17.9 5.2 41.1 5.2 59 0 12.7-3.7 25.4-10.7 25.5-23.6-5.8 3.7-12.7 6.6-20.5 8.9-21.7 6.3-47.3 6.3-69 0-7.8-2.3-14.7-5.2-20.5-8.9zm-48 4.2v13.7c9.4 1.9 19.9 2.6 30 2v-13.8c-10.1.5-20.3-.1-30-1.9zm-128 20.5v2.3c2.9 1 5.7 2.2 8.3 3.5 9 4.5 16.8 10.8 20.8 18.7 17.3 4.2 38.7 3.9 55.4-.9 9-2.6 15.8-6.3 20-9.9 4.9-4.1 5.5-8 5.5-13.7-5.8 3.7-12.7 6.6-20.5 8.9-21.7 6.2-47.3 6.2-69 0-7.8-2.3-14.7-5.2-20.5-8.9zm176 7.3c-.2 14.7 15.4 20.6 25.5 23.6 17.9 5.2 41.1 5.2 59 0 12.7-3.7 25.4-10.7 25.5-23.6-5.8 3.7-12.7 6.6-20.5 8.9-21.7 6.3-47.3 6.3-69 0-7.8-2.3-14.7-5.2-20.5-8.9zm-48 4.2v13.7c9.4 1.9 19.9 2.6 30 2v-13.8c-10.1.5-20.3-.1-30-1.9zm-169 2c-16.49 0-31.29 3.5-41.29 8.4-9.9 5-13.7 10.6-13.7 14.6s3.8 9.6 13.7 14.6c10 5 24.8 8.4 41.29 8.4 16.5 0 31.3-3.4 41.2-8.4 10-5 13.8-10.6 13.8-14.6s-3.8-9.6-13.8-14.6c-9.9-4.9-24.7-8.4-41.2-8.4zm151 18.5c-5.8 3.7-12.7 6.6-20.5 8.9-18 5.1-38.6 6-57.5 2.6v13.7c16.8 3.5 36.7 2.9 52.5-1.6 12.6-3.7 25.4-10.8 25.5-23.6zm66 7.3c-.3 14.2 14.7 20.3 24.6 23.3 5.6-4.5 10.7-7.9 16.7-10.4-7.2-.8-14.2-2.1-20.8-4-7.8-2.3-14.7-5.2-20.5-8.9zm110 0c-2.8 1.8-5.9 3.4-9.3 4.9 3.1.3 6.2.7 9.1 1.2.4-2 .2-4 .2-6.1zM273 279v13.6c10.9 2.1 20 2.6 30 2.2v-13.9c-10.1.5-20.3-.1-30-1.9zm135 18c-16.5 0-31.3 3.5-41.2 8.4-10 5-13.8 10.6-13.8 14.6s3.8 9.6 13.8 14.6c9.9 5 24.7 8.4 41.2 8.4 16.5 0 31.3-3.4 41.2-8.4 10-5 13.8-10.6 13.8-14.6s-3.8-9.6-13.8-14.6c-9.9-4.9-24.7-8.4-41.2-8.4zm-358.99 2.4c-.29 14.8 15.31 20.7 25.5 23.7 17.9 5.1 41.09 5.1 58.99 0 12.7-3.7 25.4-10.8 25.5-23.7-1.8 1.2-3.7 2.3-5.7 3.3-13.2 6.6-30.4 10.3-49.3 10.3-19.61-1.6-39.88-3.6-54.99-13.6zm205.99.1c-5.8 3.7-12.7 6.6-20.5 8.9-18 5.1-38.6 6-57.5 2.6v13.7c16.8 3.5 36.7 2.9 52.5-1.6 12.6-3.7 25.4-10.8 25.5-23.6zm66 7.3c-.4 10.3 8 16.1 13.8 19.1 0 0 .1.1.2.1v-12.4c-5.2-1.9-9.9-4.2-14-6.8zM49.01 331.5c-.34 14.6 15.52 20.6 25.5 23.6 17.9 5.1 41.09 5.1 58.99 0 12.6-3.7 25.4-10.8 25.5-23.6-5.8 3.7-12.7 6.6-20.5 8.9-21.7 6.2-47.29 6.2-68.99 0-7.8-2.3-14.7-5.2-20.5-8.9zM177 343v13.6c4.9 1.1 10.2 1.8 15.7 2.2 2-5.3 5.6-9.9 10.2-13.8-8.7.2-17.5-.5-25.9-2zm87 2c-16.5 0-31.3 3.5-41.2 8.4-10 5-13.8 10.6-13.8 14.6s3.8 9.6 13.8 14.6c9.9 5 24.7 8.4 41.2 8.4 16.5 0 31.3-3.4 41.2-8.4 10-5 13.8-10.6 13.8-14.6s-3.8-9.6-13.8-14.6c-9.9-4.9-24.7-8.4-41.2-8.4zm89 2.4c-.1 14.8 15.2 20.7 25.5 23.7 17.9 5.1 41.1 5.1 59 0 12.7-3.7 25.4-10.8 25.5-23.7-15.8 9.6-39.7 13.5-55 13.6-19.6-1.6-39.9-3.6-55-13.6zM49.01 363.5c-.34 14.6 15.52 20.6 25.5 23.6 17.9 5.1 41.09 5.1 58.99 0 12.6-3.7 25.4-10.8 25.5-23.6-5.8 3.7-12.7 6.6-20.5 8.9-21.7 6.2-47.29 6.2-68.99 0-7.8-2.3-14.7-5.2-20.5-8.9zm303.99 16c-.2 14.7 15.4 20.6 25.5 23.6 17.9 5.1 41.1 5.1 59 0 12.6-3.7 25.4-10.8 25.5-23.6-5.8 3.7-12.7 6.6-20.5 8.9-21.7 6.2-47.3 6.2-69 0-7.8-2.3-14.7-5.2-20.5-8.9zm-144 15.9c-.5 6 2.2 10.9 5.5 13.8 4.2 3.6 11 7.3 20 9.9 17.9 5.1 41.1 5.1 59 0 9-2.6 15.8-6.3 20-9.9 4.2-3.6 5.5-6.7 5.5-9.2v-4.6c-1.8 1.2-3.7 2.3-5.7 3.3-13.2 6.6-30.4 10.3-49.3 10.3s-36.1-3.7-49.3-10.3c-2-1-3.9-2.1-5.7-3.3zm-159.99.1c-.34 14.6 15.52 20.6 25.5 23.6 17.9 5.1 41.09 5.1 58.99 0 12.6-3.7 25.4-10.8 25.5-23.6-5.8 3.7-12.7 6.6-20.5 8.9-21.7 6.2-47.29 6.2-68.99 0-7.8-2.3-14.7-5.2-20.5-8.9zm303.99 16c-.2 14.7 15.4 20.6 25.5 23.6 17.9 5.1 41.1 5.1 59 0 12.6-3.7 25.4-10.8 25.5-23.6-5.8 3.7-12.7 6.6-20.5 8.9-21.7 6.2-47.3 6.2-69 0-7.8-2.3-14.7-5.2-20.5-8.9zm-303.99 16c-.34 14.6 15.52 20.6 25.5 23.6 17.9 5.1 41.09 5.1 58.99 0 12.6-3.7 25.4-10.8 25.5-23.6-5.8 3.7-12.7 6.6-20.5 8.9-21.7 6.2-47.29 6.2-68.99 0-7.8-2.3-14.7-5.2-20.5-8.9zm159.99 0c-.4 10.3 8 16.1 13.8 19.1 9.9 5 24.7 8.4 41.2 8.4 16.5 0 31.3-3.4 41.2-8.4 9.9-6.2 13.8-8.6 13.8-19.1-5.8 3.7-12.7 6.6-20.5 8.9-21.7 6.2-47.3 6.2-69 0-7.8-2.3-14.7-5.2-20.5-8.9zm144 16c-.4 10.3 8 16.1 13.8 19.1 9.9 5 24.7 8.4 41.2 8.4 16.5 0 31.3-3.4 41.2-8.4 9.9-6.2 13.8-8.6 13.8-19.1-5.8 3.7-12.7 6.6-20.5 8.9-21.7 6.2-47.3 6.2-69 0-7.8-2.3-14.7-5.2-20.5-8.9zm-303.99 16c-.44 10.2 7.88 16.1 13.7 19.1 10 5 24.8 8.4 41.29 8.4 16.5 0 31.3-3.4 41.2-8.4 9.9-6.2 13.8-8.6 13.8-19.1-5.8 3.7-12.7 6.6-20.5 8.9-21.7 6.2-47.29 6.2-68.99 0-7.8-2.3-14.7-5.2-20.5-8.9z" /></symbol><symbol id="cargoModule" viewBox="0 0 512 512" fill="currentColor"><path fill="currentColor" d="M247 16v89h9c14.9 0 23 11.7 23.8 23.6.4 6-1.2 11.5-4.7 15.4-3.5 4-9.1 7-19.1 7-5 0-11.1-2.8-15.6-7.4-4.6-4.5-7.4-10.6-7.4-15.6h-18c0 11 5.2 20.9 12.6 28.4 7.5 7.4 17.4 12.6 28.4 12.6 14 0 25.4-5 32.5-13 7.2-8.1 10-18.6 9.3-28.6-1.2-17.5-13.4-35.18-32.8-39.42V16h-18zm-47.9 140.5L61.34 247h32.7l114.86-75.5-9.8-15zm113.8 0l-9.8 15L418 247h32.6l-137.7-90.5zM41 265v222h430V265H41zm38 23h18v176H79V288zm48 0h18v176h-18V288zm48 0h18v176h-18V288zm48 0h18v176h-18V288zm48 0h18v176h-18V288zm48 0h18v176h-18V288zm48 0h18v176h-18V288zm48 0h18v176h-18V288z" /></symbol><symbol id="engine" viewBox="0 0 512 512" fill="currentColor"><path fill="currentColor" d="M342.4 21.55c-27.6 0-65.4 9.54-116.7 19.29-22.5 4.27-31.5 14.12-36.5 26.87-4.5 11.4-4.8 25.7-4.4 39.09l73.7 44.2H409l13.6-54.34c-9.8-25.79-19.8-43.48-30.2-54.78-10.8-11.69-21.9-17.15-36.1-19.35-3.6-.55-7.3-.85-11.3-.95-.9-.02-1.7-.03-2.6-.03zM18.7 71.03l-1.4 17.94 34.84 2.71 1.82-17.91-35.26-2.74zm53.21 4.13l-1.82 17.92 96.51 7.52c-.1-5.78.1-11.86.8-18.02l-95.49-7.42zM297 169v78h49.4l39-78H297zm-185 46c-21.91 0-46.08 13-66.13 25.3C25.82 252.7 10.39 265 10.39 265l11.22 14s14.68-11.7 33.68-23.3C74.3 244 98.13 233 112 233c13.9 0 27.3 10 42.4 22 15 12 31.7 26 53.6 26 21.9 0 38.6-14 53.6-26 4.1-3.3 8.1-6.4 12-9.2 1.4-7.8 2.6-15.8 3.5-23.7-9.8 5.2-18.5 12.3-26.7 18.9-15.1 12-28.5 22-42.4 22-13.9 0-27.3-10-42.4-22-15-12-31.7-26-53.6-26zm378.4 2s-14.7 11.7-33.7 23.3C437.7 252 413.9 263 400 263c-11 0-21.6-6.2-33-14.8-2.6 6.4-4.6 12.3-6.1 18 11.3 8.1 24 14.8 39.1 14.8 21.9 0 46.1-13 66.1-25.3 20.1-12.4 35.5-24.7 35.5-24.7l-11.2-14zM288 265c-.4 1.7-.9 3.5-1.3 5.2-5.6 22.6-12 41.5-21.7 53.1V359h99.5c-13.6-17.5-22.3-35-24.8-54.4-1.6-12.5-.6-25.6 2.9-39.6H288zm64 110v18c1 0 .7-.2 1.8 1.4 1.2 1.6 2.5 5 3.4 9.4 1.1 5.7 1.5 12.8 1.7 19.2h-38.1l5.1-46H265v36.3l48.8 73.1 5-45.4h40.3c.1 7 .5 15.1 2.1 22.8 1.1 5.6 2.8 11.2 6.1 16.1 3.4 4.9 9.7 9.1 16.7 9.1v-18c-1 0-.7.2-1.8-1.4-1.2-1.6-2.5-5-3.4-9.4-1.1-5.7-1.5-12.8-1.7-19.2H392v-18h-15.1c-.1-7-.5-15.1-2.1-22.8-1.1-5.6-2.8-11.2-6.1-16.1-3.4-4.9-9.7-9.1-16.7-9.1z" /></symbol><symbol id="livery" viewBox="0 0 512 512" fill="currentColor"><path fill="currentColor" d="M54.438 29.794a23.808 23.808 0 0 0-1.204.01c-4.688.157-7.914 1.736-10.113 3.935-2.932 2.932-4.761 7.689-3.588 15.305 1.174 7.616 5.683 17.754 15.272 28.941 67.894 79.21 132.935 155.56 183.703 211.969 12.273 13.637 23.693 26.08 34.125 37.135 12.095-31.902 34.57-54.144 62.902-64.715-10.825-10.199-22.936-21.313-36.197-33.248C242.93 178.358 166.578 113.314 87.369 45.42c-11.186-9.589-21.325-14.098-28.941-15.272a29.555 29.555 0 0 0-3.99-.355zm295.783 246.64c-30.461 7.627-53.241 29.185-63.608 65.219 5.652 5.785 10.956 11.085 15.78 15.707 7.58 7.264 14.095 13.007 19.21 16.957 1.776-17.225 10.045-33.062 21.645-44.691 10.601-10.628 24.496-18.006 39.125-19.092-3.871-4.836-9.14-10.751-15.63-17.524-4.838-5.047-10.415-10.623-16.522-16.576zm35.351 51.95c-10.397.137-20.929 5.28-29.582 13.955-11.537 11.565-18.674 28.85-16.267 45.7 5.334 37.342 23.749 65.81 49.46 81.237 22.727 13.636 51.452 17.35 83.643 6.983-24.222-4.01-46.475-30.706-48.197-50.65 10.63 12.814 23.94 24.547 38.426 31.75-9.881-22.578-9.201-45.452-11.088-64.321-1.352-13.522-3.891-24.982-11.377-35.162-7.486-10.18-20.423-19.8-44.74-27.907a31.062 31.062 0 0 0-10.278-1.585z" /></symbol><symbol id="harbor" viewBox="0 0 512 512" fill="currentColor"><path fill="currentColor" d="M17 17v104.2l86 23.7V17zm0 122.8c-1.4 99.4 1.35 296.5 1 296.7.12 0 .23-.1.35-.2C31.89 428 48.05 419 64 419c15.97 0 27.59 10 37.6 18 10 8 18.5 14 26.4 14 3 0 6.1-.9 9.3-2.4l90.9-250.5zm86 68.2h18v18l23 5.2-4 17.6-19-4.3v58.9c1.2-1.4 2.3-2.7 3.4-4.2 5.6-7.5 9.6-15.3 9.6-15.3l16 8.2s-4.5 8.9-11.2 17.9c-3.3 4.4-7.2 9-11.9 12.7-4.7 3.7-10.6 7-17.8 6.3-8.2-.9-14.33-5.9-19.04-11.5-4.7-5.5-8.35-12-11.36-18.3-6.02-12.7-9.37-24.8-9.37-24.8l17.34-4.8s3.08 10.9 8.28 21.8c2.38 5 5.25 9.9 8.05 13.5v-64.5l-24.98-5.6 3.96-17.6 21.02 4.7zm132.8 22l-8.6 23.7c10.2 17.5 23.3 29.8 38.1 37.8 18.8 10.1 40.1 13.2 61.7 13.5v-18c-19.8-.3-38-3.3-53.2-11.4-15.6-8.3-28.6-21.9-38-45.6zm84.2 17v18h25v46h30v-46h25v-18zm-55 82v46h46v-46zm64 0v46h110v-46h-46zm128 0v46h30v-46zm-227.4 5.3c-2 .1-3.9.5-5.5 1.3-3.1 1.5-5.6 3.9-7.9 6.6-4.5 5.6-8.3 13.3-10.9 22.6-2.6 9.2-3.7 18.2-3 26.4.3 4.1 1 8 2.6 11.8 1.7 3.8 4.6 7.9 9 10 4.3 2.1 8.5 1.6 11.7.1 3.2-1.4 5.6-3.9 7.9-6.6 4.6-5.6 8.3-13.3 11-22.6 2.6-9.2 3.6-18.2 3-26.4-.4-4-1-8-2.7-11.7-1.7-3.9-4.6-8-8.9-10.1-2.1-1.1-4.3-1.4-6.3-1.4zm.7 21.1c0 .6.2.7.2 1.3.4 4.7-.2 12-2.3 19.3-2.1 7.3-5.2 13.3-7.9 16.5-.3.5-.5.4-.8.8-.1-.6-.2-.7-.3-1.3-.4-4.7.3-12 2.4-19.3 2-7.3 5.2-13.3 7.8-16.5.4-.5.6-.4.9-.8zM265 393v46h110v-46zm128 0v46h94v-46zM64 437c-4.68 0-12.17 2.5-20.09 6.1-9.03 3.4-17.74 8.4-25.57 13.2-.12.1-.22.1-.34.2V478c2.94-2 6.22-4.1 9.77-6.3C40.26 464 56.1 457 64 457c7.9 0 16.34 6 26.37 14 10.03 8 21.63 18 37.63 18 16 0 27.6-10 37.6-18s18.5-14 26.4-14c7.9 0 23.8 7 36.2 14.7 8.3 5 15 9.9 18.8 12.7v-22c-2.8-2-6-4-9.3-6.1C224.1 448 208 439 192 439c-16 0-27.6 10-37.6 18s-18.5 14-26.4 14c-7.9 0-16.4-6-26.4-14-7.14-5.7-15.08-12.4-24.8-15.8-4.5-2.6-8.72-4.2-12.8-4.2zm201 20v30h46v-30zm64 0v30h110v-30zm128 0v30h30v-30z" /></symbol><symbol id="workshop" viewBox="0 0 512 512" fill="currentColor"><path fill="currentColor" d="M170.375 18.594c-1.155 0-2.32.014-3.47.03-25.176.37-49.134 5.08-68.78 13.94 84.13 7.937 156.965 61.77 119.28 122.53-2.017 3.254-4.033 6.445-6.03 9.625l.47.186c-.933 2.4-.566 5.203 2.343 9.53 2.908 4.33 8.322 9.22 14.75 12.97 6.427 3.752 13.838 6.392 20.28 7.22 5.992.768 10.808-.054 14-1.94 1.7-2.696 3.416-5.415 5.157-8.155 21.695-8.632 57.903 11.51 65.22 29.22 1.34-14.225 6.522-29.91 15.342-45.188 6.697-11.598 14.627-21.517 23.157-29.25-20.304 7.277-30.037-6.764-38.563-34.187-8.197-26.38-36.394-47.365-58.155-59.844-31.287-17.92-69.206-26.65-105-26.686zm239.03 121.937c-4.01-.034-9.278 1.558-15.592 5.564-9.622 6.103-20.325 17.327-28.688 31.812-8.363 14.486-12.713 29.366-13.188 40.75-.474 11.385 2.692 17.85 6.688 20.156 3.996 2.307 11.222 1.823 20.844-4.28 9.62-6.104 20.323-17.297 28.686-31.782s12.713-29.365 13.188-40.75c.474-11.385-2.693-17.88-6.688-20.188-.998-.576-2.206-.973-3.594-1.156-.52-.068-1.083-.12-1.656-.125zm-210.81 44.282C80.93 367.197 4.35 418.813 21.937 462.875c8.065 20.204 31.467 36.36 55.218 28.78 49.34-15.74 59.974-94.006 173.094-278.124-1.138-.075-2.278-.198-3.406-.343-9.516-1.22-18.924-4.76-27.313-9.656-8.387-4.895-15.804-11.11-20.874-18.655-.016-.024-.046-.04-.062-.063zM492 256.97l-110.438 22.436 51.313 15.53 31.47 148.94 18.31-3.845-31.467-148.81L492 256.97zm-200.125 15.874l-80 79.375 51.438-15.19 68.093 67.564L308.28 489.5l18.064 4.906 20.312-74.656 24.72 24.5L384.53 431l-32.217-31.97 14-51.5 52.125-12.56-108.97-28.75 38.75 36.56-11.187 41.095-60.467-60 15.312-51.03z" /></symbol><symbol id="shipyard" viewBox="0 0 512 512" fill="currentColor"><path fill="currentColor" d="M306.875 18.22c-.47-.002-.935.014-1.406.03-.158.005-.313.024-.47.03-1.583.056-3.176.204-4.78.47-3.61.597-7.01 1.7-10.158 3.22L49.595 120.062c-.918.42-1.808.877-2.688 1.343-.598.318-1.2.63-1.78.97-13.697 7.67-22.918 21.836-24.188 37.655-.058.635-.094 1.27-.125 1.907-.363 7.292.943 14.76 4.156 21.844 10.908 24.058 39.464 34.588 64.25 23.407l.093-.03L321.375 90.968l.156-.095.158-.063c19.685-8.925 28.3-31.436 19.656-50.5-6.28-13.85-19.92-22.07-34.47-22.093zm.28 18.718c8.924.308 16.542 6.77 18.064 15.968 1.737 10.51-5.208 20.23-15.72 21.97-10.512 1.738-20.2-5.21-21.938-15.72-1.738-10.51 5.208-20.23 15.72-21.968 1.313-.218 2.6-.295 3.874-.25zM354 86.656c-5.762 8.854-14.006 16.267-24.28 21-.108.05-.206.108-.314.156l-16.47 8.25 57.533 97.907c7.09-11.768 19.637-19.107 33.06-19.845 1.59-.087 3.18-.07 4.783.03L354 86.656zM67.906 135.03c.484-.005.96.015 1.438.032 13.393.478 24.876 10.217 27.156 24 2.606 15.75-7.873 30.426-23.625 33.032-15.752 2.606-30.426-7.906-33.03-23.656-2.607-15.75 7.903-30.395 23.655-33 1.477-.245 2.955-.387 4.406-.407zm60.188 73.595l-16.813 8.438 7.814 21.625-50.78-8.22-.064-.187c-7.272-.066-14.432-1.293-21.22-3.593l59.5 163.344-.405.783.75.187 16.906 46.406c4.612-4.79 9.704-9.125 15.22-12.875l-10.28-28.217 51.624 12.562h.03c3.962-.504 8-.78 12.095-.78 2.655 0 5.272.128 7.874.342l-72.25-199.812zm277.437 4.094c-.365 0-.73.012-1.092.03-8.72.434-16.66 5.983-19.844 14.78-4.244 11.733 1.706 24.414 13.437 28.657 11.733 4.244 24.445-1.705 28.69-13.437 4.243-11.734-1.707-24.412-13.44-28.656-2.565-.93-5.186-1.376-7.75-1.375zm39.158 9.81c2.728 8.395 2.806 17.714-.407 26.595-.456 1.264-.994 2.497-1.56 3.688l27.936 5-4.375 51.25-19.405 11.562 9.563 16.063 23.53-14.032 4.126-2.437.406-4.783 6.313-73.937.937-10.78-2.03.124-45.033-8.313zm-80.094 12.376l-44 26.78-.094.033v.03l-.063.03.157.158 4.47 9.5 31.498 67.187 2.032 4.344 4.72.874 26.905 5 3.436-18.375-22.22-4.126-21.467-45.813 26.842-16.186c-7.77-7.738-12.248-18.393-12.218-29.438zM75.656 250.594l35.156 5.687-18.593 39.845-16.564-45.53zm52.406 12.906l18.344 50.78-37.812-9.06 19.47-41.72zm-26.093 59.344l35.31 8.47-19.03 36.31-16.28-44.78zm52.968 15.03l18.093 49.97-39.28-9.53 21.188-40.44zm37.53 88.907c-39.29 0-71.475 29.325-76.062 67.345h22.5c4.46-25.5 26.83-45.03 53.563-45.03 26.73 0 49.074 19.53 53.53 45.03h22.5c-4.587-38.02-36.74-67.344-76.03-67.344zm0 41c-16.555 0-30.22 11.145-34.312 26.345h68.594c-4.092-15.2-17.725-26.344-34.28-26.344z" /></symbol><symbol id="deck" viewBox="0 0 512 512" fill="currentColor"><path fill="currentColor" d="M256 15.99c-8.8 0-16 14.33-16 32 0 8.47 1.7 16.59 4.7 22.57-4.7.21-9 1.16-13.7 2.43v15.85c17.1-2.42 34.1-2.31 50 0V72.99c-4.5-1.35-9.4-2.11-13.7-2.43 3-5.98 4.7-14.1 4.7-22.57 0-17.67-7.2-32-16-32zM86.23 86.28c-6.25 6.25-1.19 21.42 11.3 33.92 6.07 6 12.97 10.6 19.37 12.7-3.2 3.5-5.6 7.2-8 11.4l11.3 11.2c9.9-13.4 21.9-25.4 35.3-35.3l-11.2-11.3c-4.2 2.2-8 5.2-11.4 8-2.1-6.4-6.7-13.3-12.7-19.3-8-6.21-24.55-20.4-33.97-11.32zm305.57 11.3c-6 6.02-10.6 12.92-12.7 19.32-3.5-3.2-7.2-5.6-11.4-8l-11.2 11.3c13.4 9.9 25.4 21.9 35.3 35.3l11.3-11.2c-2.2-4.2-5.2-8-8-11.4 6.3-2.2 13.2-6.7 19.2-12.7 12.5-12.5 17.6-27.69 11.3-33.93-9.9-7.87-28 5.62-33.8 11.31zm-142.3 7.52c-36.8 1.6-70.2 16.3-95.6 39.6-3.3 3.1-6.6 6.3-9.2 9.2-23.3 25.4-38 58.8-39.6 95.7 0 4.5-.2 9.1.1 13 1.5 36.8 16.2 70.2 39.5 95.6 3.1 3.2 6.4 6.5 9.2 9.2 25.4 23.2 58.8 37.9 95.6 39.5h.2c4.1.2 8.7 0 12.8 0 36.8-1.6 70.2-16.3 95.6-39.6 3.3-3.1 6.6-6.3 9.2-9.2 23.3-25.4 38-58.8 39.6-95.6v-.2c.2-4.2 0-8.7 0-12.8-1.6-36.8-16.3-70.2-39.6-95.6-3.1-3.3-6.3-6.6-9.2-9.2-25.4-23.3-58.8-38-95.6-39.6-4.5-.2-9.1 0-13 0zm6.5 10.7c4.4 0 8 3.6 8 8s-3.6 8-8 8-8-3.6-8-8 3.6-8 8-8zm6.9 28.4c25.7 1.6 49.1 11.8 67.3 27.9 3.4 3.1 6.7 6.3 9.7 9.7 16.1 18.2 26.3 41.6 27.9 67.4.4 4.6 0 9.2 0 13.7-1.6 25.7-11.8 49.1-27.9 67.3-3.1 3.4-6.3 6.7-9.7 9.7-18.2 16.1-41.6 26.3-67.4 27.9-4.6.1-9.2.4-13.7 0-25.7-1.6-49.1-11.8-67.2-27.9h-.1c-3.4-3-6.6-6.3-9.6-9.7-16.1-18.1-26.4-41.5-28-67.3-.1-4.6-.4-9.1 0-13.6.5-25.8 13.3-50.5 27.9-67.5 3.1-3.4 6.3-6.7 9.7-9.7 18.2-16.1 41.6-26.3 67.4-27.9 4.6-.4 9.2 0 13.7 0zm-94.8 12.6c3.1 3.1 3.1 8.2 0 11.3-3.1 3.1-8.2 3.1-11.3 0-3.1-3.1-3.1-8.2 0-11.3 3.5-2.9 8.2-2.9 11.3 0zm187.1 0c3.1 3.1 3.1 8.2 0 11.3-3.1 3.1-8.2 3.1-11.3 0-3.1-3.1-3.1-8.2 0-11.3 3.5-2.9 8.2-2.9 11.3 0zM240 163.3v8.7c2.5 3.2 4.4 5.5 7.8 6.8-.7 12.4-1.6 25.1-2.8 37.7 7.4-1.9 15.2-2 22.1.1-1.2-12.7-2.2-25.4-2.9-37.9 7.9-2.1 7.8-8.6 7.8-15.4-11-1.7-21.8-1.6-32 0zm-38.3 15.8c-8.7 6.2-16.4 13.9-22.6 22.6l6.2 6.2c4 .5 7 .8 10.3-.7 8.3 9.3 16.6 18.9 24.7 28.7 3.7-6.5 9.1-11.9 15.7-15.6-9.9-8.1-19.5-16.4-28.8-24.7 1.8-3.1 1.3-6.7.7-10.3zm108.6 0l-6.2 6.2c-.7 4-.8 6.9.6 10.3-9.2 8.3-18.9 16.6-28.7 24.7 6.5 3.7 11.9 9.1 15.6 15.7 8.1-9.9 16.5-19.5 24.7-28.8 3.2 1.7 6.7 1.3 10.3.7l6.2-6.2c-6.2-8.7-13.8-16.4-22.5-22.6zM423.1 231c2.5 17.1 2.3 34.1 0 50H439c1.5-4.5 2-9.4 2.3-13.7 6 3 14.2 4.7 22.7 4.7 17.7 0 32-7.2 32-16s-14.3-16-32-16c-8.5 0-16.7 1.7-22.7 4.7-.1-4.7-1-9-2.3-13.7zm-350.07.1c-1.35 4.5-2.11 9.2-2.4 13.6-6.02-3-14.15-4.6-22.6-4.6-17.67 0-32 7.2-32 16s14.33 16 32 16c8.48 0 16.61-1.7 22.6-4.7.15 4.7 1.12 9 2.4 13.7h15.8c-2.38-17.1-2.5-34.1 0-50zM256 233c-12.9 0-23 10.2-23 23s10.1 23 23 23c12.8 0 23-10.2 23-23s-10.2-23-23-23zm84 7c-3.2 2.5-5.5 4.4-6.8 7.8-12.4-.7-25.1-1.6-37.7-2.8 1.9 7.5 1.9 15.2 0 22.1 12.6-1.2 25.2-2.2 37.7-2.9 1 3.5 3.8 5.7 6.8 7.8h8.7c1.7-11 1.6-21.8 0-32zm-176.7.1c-1.7 10.9-1.5 21.8 0 32h8.7c3.1-2.5 5.6-4.3 6.7-7.8 12.5.6 25.1 1.6 37.8 2.8-2-7.5-2-15.2-.1-22.1-12.6 1.2-25.3 2.1-37.7 2.8-.9-3.5-3.8-5.7-6.7-7.7zm224.9 7.9c4.4 0 8 3.6 8 8s-3.6 8-8 8-8-3.6-8-8 3.6-8 8-8zm-264.4.1c4.4 0 8 3.6 8 8s-3.6 8-8 8-8-3.6-8-8 3.6-8 8-8zm167.9 28c-3.7 6.5-9.1 11.9-15.7 15.6 9.9 8.1 19.5 16.4 28.8 24.7-1.8 3.1-1.3 6.7-.7 10.3l6.2 6.2c8.7-6.2 16.4-13.9 22.6-22.6l-6.2-6.2c-4-.5-7-.8-10.3.7-8.3-9.3-16.6-18.9-24.7-28.7zm-71.4 0c-8.1 9.8-16.4 19.4-24.7 28.7-3.1-1.8-6.7-1.3-10.2-.7l-6.3 6.2c6.2 8.8 13.9 16.5 22.7 22.6l6.2-6.2c.5-4 .8-7-.7-10.3 9.3-8.3 18.9-16.6 28.7-24.7-6.5-3.7-12-9.1-15.7-15.6zm24.6 19.3c1.2 12.7 2.2 25.4 2.9 37.9-3.5.8-5.8 3.8-7.8 6.7v8.7c11 1.7 21.8 1.6 32 0V340c-2.5-3.2-4.4-5.5-7.8-6.8.7-12.4 1.6-25.1 2.8-37.7-7.7 1.3-15.8 1.7-22.1-.1zm-76.7 48.5c3.1 3.1 3.1 8.2 0 11.3-3.1 3.1-8.2 3.1-11.3 0-3.1-3.1-3.1-8.2 0-11.3 3.5-3 8.2-3 11.3 0zm187 0c3.1 3.1 3.1 8.2 0 11.3-3.1 3.1-8.2 3.1-11.3 0-3.1-3.1-3.1-8.2 0-11.3 3.5-3 8.3-3 11.3 0zm36.6 12.6c-9.9 13.4-21.9 25.4-35.3 35.3l11.2 11.3c4.2-2.2 8-5.2 11.4-8 2.1 6.4 6.7 13.3 12.7 19.3 12.5 12.5 27.6 17.5 33.9 11.3 6.2-6.3 1.2-21.4-11.3-33.9-6-6-12.9-10.6-19.3-12.7 3.2-3.5 5.6-7.2 8-11.4zm-271.6 0L109 367.7c2.3 4.1 5.1 8.2 8 11.4-6.4 2.1-13.3 6.7-19.37 12.7-12.47 12.5-17.52 27.6-11.3 33.9 6.24 6.3 21.47 1.2 33.97-11.3 6-6 10.6-12.9 12.7-19.3 3.5 3.2 7.2 5.6 11.4 8l11.2-11.2c-13.5-10-25.4-21.9-35.4-35.4zM256 380.2c4.4 0 8 3.6 8 8s-3.6 8-8 8-8-3.6-8-8 3.6-8 8-8zm-25 43V439c4.5 1.4 9.4 2.1 13.7 2.4-3 6-4.7 14.1-4.7 22.6 0 17.7 7.2 32 16 32s16-14.3 16-32c0-8.5-1.7-16.6-4.7-22.6 4.7-.2 9-1.1 13.7-2.4v-15.9c-17.1 2.5-34.1 2.4-50 .1z" /></symbol><symbol id="voyage" viewBox="0 0 512 512" fill="currentColor"><path fill="currentColor" d="M203.97 23l-18.032 4.844 11.656 43.468c-25.837 8.076-50.32 21.653-71.594 40.75L94.53 80.594l-13.218 13.22 31.376 31.374c-19.467 21.125-33.414 45.53-41.813 71.343l-42.313-11.343-4.843 18.063 42.25 11.313c-6.057 27.3-6.157 55.656-.345 83L23.72 308.78l4.843 18.064 41.812-11.22c6.693 21.225 17.114 41.525 31.25 59.876l-29.97 52.688-16.81 29.593 29.56-16.842 52.657-29.97c18.41 14.216 38.784 24.69 60.094 31.407l-11.22 41.844 18.033 4.81 11.218-41.905c27.345 5.808 55.698 5.686 83-.375l11.312 42.28 18.063-4.81-11.344-42.376c25.812-8.4 50.217-22.315 71.342-41.78l31.375 31.373 13.22-13.218-31.47-31.47c19.09-21.266 32.643-45.738 40.72-71.563l43.53 11.657 4.813-18.063-43.625-11.686c5.68-27.044 5.576-55.06-.344-82.063l43.97-11.78-4.813-18.063L440.908 197c-6.73-20.866-17.08-40.79-31.032-58.844l29.97-52.656 16.842-29.563-29.593 16.844-52.656 29.97c-17.998-13.875-37.874-24.198-58.657-30.906l11.783-44L309.5 23l-11.78 43.97c-27-5.925-55.02-6.05-82.064-.376L203.97 23zm201.56 85L297.25 298.313l-.75.437-40.844-40.875-148.72 148.72-2.186 1.25 109.125-191.75 41.78 41.78L405.532 108zm-149.686 10.594c21.858 0 43.717 5.166 63.594 15.47l-116.625 66.342-2.22 1.28-1.28 2.22-66.25 116.406c-26.942-52.04-18.616-117.603 25.03-161.25 26.99-26.988 62.38-40.468 97.75-40.468zm122.72 74.594c26.994 52.054 18.67 117.672-25.002 161.343-43.66 43.662-109.263 52.005-161.312 25.033l116.438-66.282 2.25-1.25 1.25-2.25 66.375-116.592z" /></symbol><symbol id="city" viewBox="0 0 512 512" fill="currentColor"><path fill="currentColor" d="M109.902 35.87l-71.14 59.284h142.28l-71.14-59.285zm288 32l-71.14 59.284h142.28l-71.14-59.285zM228.73 84.403l-108.9 90.75h217.8l-108.9-90.75zm-173.828 28.75v62h36.81l73.19-60.992v-1.008h-110zm23 14h16v18h-16v-18zm265 18v10.963l23 19.166v-16.13h16v18h-13.756l.104.087 19.098 15.914h-44.446v14h78v-39h18v39h14v-62h-110zm-194.345 48v20.08l24.095-20.08h-24.095zm28.158 0l105.1 87.582 27.087-22.574v-65.008H176.715zm74.683 14h35.735v34h-35.735v-34zm-76.714 7.74L30.37 335.153H319l-144.314-120.26zm198.046 13.51l-76.857 64.047 32.043 26.704H481.63l-108.9-90.75zm-23.214 108.75l.103.086 19.095 15.914h-72.248v77.467h60.435v-63.466h50v63.467h46v-93.466H349.516zm-278.614 16V476.13h126v-76.976h50v76.977h31.565V353.155H70.902zm30 30h50v50h-50v-50z" /></symbol><symbol id="anchor" viewBox="0 0 512 512" fill="currentColor"><path fill="currentColor" d="M90.53 23c-18.345 0-36.688 7.002-50.686 21-27.996 27.996-27.994 73.38 0 101.375 21.776 21.776 54.08 26.603 80.53 14.5l53.69 53.688c-21.425 19.696-44 38.257-67.44 55.937l30.126 30.125c18.734-22.545 37.953-44.474 57.844-65.53l169.594 169.593c-51.845 40.444-120.866 53.838-192.813 42.562L173 424.906 72.47 404.47l95.405 88.405 1.97-26c86.593 36.97 177.603 34.61 241.343-11.75l63.062 21.313-21.47-63.594c44.61-63.62 46.408-153.412 9.908-238.875l26.03-1.97-88.406-95.375 20.438 100.53 21.344-1.624c11.278 71.983-2.168 141.017-42.656 192.876l-169.782-169.75c21.075-20.34 42.93-39.665 65.78-57.72l-30.123-30.124c-17.015 24.154-35.673 46.66-55.688 67.813l-53.97-53.97C167.834 98.183 163.032 65.814 141.22 44c-14-13.998-32.343-21-50.69-21zm0 27.03c11.434.002 22.872 4.34 31.595 13.064 17.447 17.447 17.446 45.742 0 63.187-17.446 17.447-45.71 17.447-63.156 0-17.447-17.444-17.448-45.74 0-63.186C67.69 54.37 79.097 50.03 90.53 50.03z" /></symbol><symbol id="hull" viewBox="0 0 512 512" fill="currentColor"><path fill="currentColor" d="M25 24.99v30.02h56.69L111.3 137l-86.3-.1V183l122.2-.1C127.7 129 106.7 71.9 89.7 25zM25 201v247.8c.78-.5 1.52-1 2.32-1.5C40.85 439 56.99 430 72.92 430c15.98 0 27.58 10 37.68 18 10.1 8 18.5 14 26.4 14 7.9 0 16.4-6 26.4-14s21.6-17.9 37.5-17.9c16 0 27.6 9.9 37.7 17.8 10 8 18.5 14.1 26.4 14.1 1.1 0 2.2-.2 3.4-.4 8.8-7.1 19.7-17.6 31.1-30.4 19.9-22.3 42.2-51.5 63.1-82.2 20.7-30.8 40.1-63 54.1-91.2 11.3-22.7 18.7-43 21.2-56.8zm167 30h159.9l.1 18-159.9.1zm72.9 50v23h23l.1 18-23.1.1v58.3l.6-.3c4.5-2.8 9.4-6.9 14.1-11.4 4.5-4.6 8.6-9.6 11.4-14.1 2.7-4.5 3.9-8.5 3.9-9.5l18-.1c-.1 7.1-2.9 13.1-6.6 19.1-3.7 6-8.6 11.9-14 17.4-5.5 5.3-11.4 10.2-17.4 13.9-6 3.7-11.9 6.6-18.9 6.6-7.1 0-13-2.9-19-6.6-6.1-3.7-12-8.6-17.4-14-5.5-5.5-10.3-11.4-14.1-17.4-3.7-6-6.6-11.9-6.6-18.9l18-.1c0 1 1.2 5 3.9 9.5 2.8 4.6 6.9 9.5 11.5 14.2 4.6 4.5 9.6 8.6 14.2 11.4.1.1.3.2.4.3v-58.3h-23v-18h23v-23zm189.9 166.9c-7.1.2-14.7 5.6-24 13.3-10.1 8.2-21.6 18.8-37.8 18.7-16 0-27.6-9.9-37.7-17.8-10-8-18.5-14.1-26.3-14.1-8 0-16.4 6-26.4 14s-21.7 18-37.6 18c-15.9 0-27.6-10-37.7-17.9-10-8-18.5-14-26.3-14-8 0-16.4 6-26.4 14-10 7.9-21.6 17.9-37.5 17.9-16 0-27.7-10-37.71-18-10.06-8-18.53-14-26.46-14-7.9 0-23.71 7-36.19 14.6-9.17 5.7-15.32 10.2-18.74 12.8v18.7l475.9 1.4v-19.4c-2.1-2.6-6.4-7.2-12.8-13-8.7-7.8-20.1-14.7-24.9-15.1-.4 0-.9-.1-1.4-.1z" /></symbol><symbol id="leaf" viewBox="0 0 512 512" fill="currentColor"><path fill="currentColor" d="M461.596 17.701C271.149 128.454-109.411-4.192 66.276 350.885c3.065 5.77 6.619 11.164 10.529 16.293-29.888 33.096-51.12 70.802-57.117 114.554 5.26 3.375 14.588 7.464 26.88 9.916 13.06 2.605 29.481 3.516 47.916 1.711-11.483-36.045-7.774-70.234 5.836-101.043 5.5 6.543 10.283 10.23 14.782 13.012C581.497 693.816 499.604 120.792 461.596 17.701z" /></symbol><symbol id="forge" viewBox="0 0 512 512" fill="currentColor"><path fill="currentColor" d="M128.688 115.594v147.75h285v-147.75h-285zm-111.844 20.47c17.374 47.14 54.372 80.413 94.906 93.81v-93.81H16.844zm414.375 12.31v88.657c21.457-9.083 42.92-25.257 64.374-47.374-21.52-22.562-42.633-35.173-64.375-41.28zm-226.25 132.47c-12.15 38.536-33.897 71.5-60.595 100.47l257.844-.002c-28.705-29.016-49.952-62.054-61.5-100.468H204.97zM101.843 400v43.78h337.562V400H101.844z" /></symbol><symbol id="wheel" viewBox="0 0 512 512" fill="currentColor"><path fill="currentColor" d="M256 15.99c-8.8 0-16 14.33-16 32 0 8.47 1.7 16.59 4.7 22.57-4.7.21-9 1.16-13.7 2.43v15.85c17.1-2.42 34.1-2.31 50 0V72.99c-4.5-1.35-9.4-2.11-13.7-2.43 3-5.98 4.7-14.1 4.7-22.57 0-17.67-7.2-32-16-32zM86.23 86.28c-6.25 6.25-1.19 21.42 11.3 33.92 6.07 6 12.97 10.6 19.37 12.7-3.2 3.5-5.6 7.2-8 11.4l11.3 11.2c9.9-13.4 21.9-25.4 35.3-35.3l-11.2-11.3c-4.2 2.2-8 5.2-11.4 8-2.1-6.4-6.7-13.3-12.7-19.3-8-6.21-24.55-20.4-33.97-11.32zm305.57 11.3c-6 6.02-10.6 12.92-12.7 19.32-3.5-3.2-7.2-5.6-11.4-8l-11.2 11.3c13.4 9.9 25.4 21.9 35.3 35.3l11.3-11.2c-2.2-4.2-5.2-8-8-11.4 6.3-2.2 13.2-6.7 19.2-12.7 12.5-12.5 17.6-27.69 11.3-33.93-9.9-7.87-28 5.62-33.8 11.31zm-142.3 7.52c-36.8 1.6-70.2 16.3-95.6 39.6-3.3 3.1-6.6 6.3-9.2 9.2-23.3 25.4-38 58.8-39.6 95.7 0 4.5-.2 9.1.1 13 1.5 36.8 16.2 70.2 39.5 95.6 3.1 3.2 6.4 6.5 9.2 9.2 25.4 23.2 58.8 37.9 95.6 39.5h.2c4.1.2 8.7 0 12.8 0 36.8-1.6 70.2-16.3 95.6-39.6 3.3-3.1 6.6-6.3 9.2-9.2 23.3-25.4 38-58.8 39.6-95.6v-.2c.2-4.2 0-8.7 0-12.8-1.6-36.8-16.3-70.2-39.6-95.6-3.1-3.3-6.3-6.6-9.2-9.2-25.4-23.3-58.8-38-95.6-39.6-4.5-.2-9.1 0-13 0zm6.5 10.7c4.4 0 8 3.6 8 8s-3.6 8-8 8-8-3.6-8-8 3.6-8 8-8zm6.9 28.4c25.7 1.6 49.1 11.8 67.3 27.9 3.4 3.1 6.7 6.3 9.7 9.7 16.1 18.2 26.3 41.6 27.9 67.4.4 4.6 0 9.2 0 13.7-1.6 25.7-11.8 49.1-27.9 67.3-3.1 3.4-6.3 6.7-9.7 9.7-18.2 16.1-41.6 26.3-67.4 27.9-4.6.1-9.2.4-13.7 0-25.7-1.6-49.1-11.8-67.2-27.9h-.1c-3.4-3-6.6-6.3-9.6-9.7-16.1-18.1-26.4-41.5-28-67.3-.1-4.6-.4-9.1 0-13.6.5-25.8 13.3-50.5 27.9-67.5 3.1-3.4 6.3-6.7 9.7-9.7 18.2-16.1 41.6-26.3 67.4-27.9 4.6-.4 9.2 0 13.7 0zm-94.8 12.6c3.1 3.1 3.1 8.2 0 11.3-3.1 3.1-8.2 3.1-11.3 0-3.1-3.1-3.1-8.2 0-11.3 3.5-2.9 8.2-2.9 11.3 0zm187.1 0c3.1 3.1 3.1 8.2 0 11.3-3.1 3.1-8.2 3.1-11.3 0-3.1-3.1-3.1-8.2 0-11.3 3.5-2.9 8.2-2.9 11.3 0zM240 163.3v8.7c2.5 3.2 4.4 5.5 7.8 6.8-.7 12.4-1.6 25.1-2.8 37.7 7.4-1.9 15.2-2 22.1.1-1.2-12.7-2.2-25.4-2.9-37.9 7.9-2.1 7.8-8.6 7.8-15.4-11-1.7-21.8-1.6-32 0zm-38.3 15.8c-8.7 6.2-16.4 13.9-22.6 22.6l6.2 6.2c4 .5 7 .8 10.3-.7 8.3 9.3 16.6 18.9 24.7 28.7 3.7-6.5 9.1-11.9 15.7-15.6-9.9-8.1-19.5-16.4-28.8-24.7 1.8-3.1 1.3-6.7.7-10.3zm108.6 0l-6.2 6.2c-.7 4-.8 6.9.6 10.3-9.2 8.3-18.9 16.6-28.7 24.7 6.5 3.7 11.9 9.1 15.6 15.7 8.1-9.9 16.5-19.5 24.7-28.8 3.2 1.7 6.7 1.3 10.3.7l6.2-6.2c-6.2-8.7-13.8-16.4-22.5-22.6zM423.1 231c2.5 17.1 2.3 34.1 0 50H439c1.5-4.5 2-9.4 2.3-13.7 6 3 14.2 4.7 22.7 4.7 17.7 0 32-7.2 32-16s-14.3-16-32-16c-8.5 0-16.7 1.7-22.7 4.7-.1-4.7-1-9-2.3-13.7zm-350.07.1c-1.35 4.5-2.11 9.2-2.4 13.6-6.02-3-14.15-4.6-22.6-4.6-17.67 0-32 7.2-32 16s14.33 16 32 16c8.48 0 16.61-1.7 22.6-4.7.15 4.7 1.12 9 2.4 13.7h15.8c-2.38-17.1-2.5-34.1 0-50zM256 233c-12.9 0-23 10.2-23 23s10.1 23 23 23c12.8 0 23-10.2 23-23s-10.2-23-23-23zm84 7c-3.2 2.5-5.5 4.4-6.8 7.8-12.4-.7-25.1-1.6-37.7-2.8 1.9 7.5 1.9 15.2 0 22.1 12.6-1.2 25.2-2.2 37.7-2.9 1 3.5 3.8 5.7 6.8 7.8h8.7c1.7-11 1.6-21.8 0-32zm-176.7.1c-1.7 10.9-1.5 21.8 0 32h8.7c3.1-2.5 5.6-4.3 6.7-7.8 12.5.6 25.1 1.6 37.8 2.8-2-7.5-2-15.2-.1-22.1-12.6 1.2-25.3 2.1-37.7 2.8-.9-3.5-3.8-5.7-6.7-7.7zm224.9 7.9c4.4 0 8 3.6 8 8s-3.6 8-8 8-8-3.6-8-8 3.6-8 8-8zm-264.4.1c4.4 0 8 3.6 8 8s-3.6 8-8 8-8-3.6-8-8 3.6-8 8-8zm167.9 28c-3.7 6.5-9.1 11.9-15.7 15.6 9.9 8.1 19.5 16.4 28.8 24.7-1.8 3.1-1.3 6.7-.7 10.3l6.2 6.2c8.7-6.2 16.4-13.9 22.6-22.6l-6.2-6.2c-4-.5-7-.8-10.3.7-8.3-9.3-16.6-18.9-24.7-28.7zm-71.4 0c-8.1 9.8-16.4 19.4-24.7 28.7-3.1-1.8-6.7-1.3-10.2-.7l-6.3 6.2c6.2 8.8 13.9 16.5 22.7 22.6l6.2-6.2c.5-4 .8-7-.7-10.3 9.3-8.3 18.9-16.6 28.7-24.7-6.5-3.7-12-9.1-15.7-15.6zm24.6 19.3c1.2 12.7 2.2 25.4 2.9 37.9-3.5.8-5.8 3.8-7.8 6.7v8.7c11 1.7 21.8 1.6 32 0V340c-2.5-3.2-4.4-5.5-7.8-6.8.7-12.4 1.6-25.1 2.8-37.7-7.7 1.3-15.8 1.7-22.1-.1zm-76.7 48.5c3.1 3.1 3.1 8.2 0 11.3-3.1 3.1-8.2 3.1-11.3 0-3.1-3.1-3.1-8.2 0-11.3 3.5-3 8.2-3 11.3 0zm187 0c3.1 3.1 3.1 8.2 0 11.3-3.1 3.1-8.2 3.1-11.3 0-3.1-3.1-3.1-8.2 0-11.3 3.5-3 8.3-3 11.3 0zm36.6 12.6c-9.9 13.4-21.9 25.4-35.3 35.3l11.2 11.3c4.2-2.2 8-5.2 11.4-8 2.1 6.4 6.7 13.3 12.7 19.3 12.5 12.5 27.6 17.5 33.9 11.3 6.2-6.3 1.2-21.4-11.3-33.9-6-6-12.9-10.6-19.3-12.7 3.2-3.5 5.6-7.2 8-11.4zm-271.6 0L109 367.7c2.3 4.1 5.1 8.2 8 11.4-6.4 2.1-13.3 6.7-19.37 12.7-12.47 12.5-17.52 27.6-11.3 33.9 6.24 6.3 21.47 1.2 33.97-11.3 6-6 10.6-12.9 12.7-19.3 3.5 3.2 7.2 5.6 11.4 8l11.2-11.2c-13.5-10-25.4-21.9-35.4-35.4zM256 380.2c4.4 0 8 3.6 8 8s-3.6 8-8 8-8-3.6-8-8 3.6-8 8-8zm-25 43V439c4.5 1.4 9.4 2.1 13.7 2.4-3 6-4.7 14.1-4.7 22.6 0 17.7 7.2 32 16 32s16-14.3 16-32c0-8.5-1.7-16.6-4.7-22.6 4.7-.2 9-1.1 13.7-2.4v-15.9c-17.1 2.5-34.1 2.4-50 .1z" /></symbol><symbol id="cutter" viewBox="0 0 512 512" fill="currentColor"><path fill="currentColor" d="M199.256 74.5v285H27.744l25.998 78H380.255l104-78h-267v-285h-18zm18 18c36.787 88.85 64.94 216 0 250h208c22-34-11.905-164.76-208-250zm-36 0c-33.046 69.333-50 200-144 250h144v-250z" /></symbol><symbol id="lighter" viewBox="0 0 512 512" fill="currentColor"><path fill="currentColor" d="M482.2 66.37c-62.8 22.61-139.5 57.53-219.3 96.03H408c31.3-31.8 55-66.02 74.2-96.03zm9.1 18.91C462.4 129.7 423 182.1 363.8 223.3c-67.2 46.8-159.8 78.3-288.82 66.9 2.19 55.4 28.92 97.4 67.92 143.7 184.6-62.2 266.8-127.6 306-191.2 32.4-52.7 35.9-105.4 42.4-157.42zM226 180.4c-9.5 4.7-19.1 9.4-28.6 14.1h175c5.8-4.6 11.3-9.3 16.7-14.1zm-64.8 32.1c-33.3 16.7-66.19 33.2-98.25 49.4.26.1.52.3.77.4 4.1 2.4 7.87 5.7 10.24 9.9 123.04 11.6 209.84-17 273.84-59.7zm-121.63 62c-6.3 0-11.89 1.6-15.22 3.5s-3.62 3.3-3.62 3.4c0 .1.29 1.5 3.62 3.4s8.92 3.5 15.22 3.5c6.3 0 11.89-1.6 15.22-3.5s3.62-3.3 3.62-3.4c0-.1-.29-1.5-3.62-3.4s-8.92-3.5-15.22-3.5zm18.34 28.7c-5.5 2-11.72 3.1-18.34 3.1-4.33 0-8.48-.5-12.38-1.4 2.45 28.1 12.83 60.1 26.72 86.3 9.54 18.1 20.63 33.5 30.85 43.1 10.22 9.7 18.54 12.4 22.94 11 5.7-1.8 11.3-3.6 16.8-5.4-34.9-42.2-61.13-84.1-66.59-136.7z" /></symbol><symbol id="barge" viewBox="0 0 512 512" fill="currentColor"><path fill="currentColor" d="M80 23v18h23v14h18V41h23V23zm-8.2 50L42.38 279H135V144.5H95.5v-49H135V73zM185 137v46h78v-46zm96 0v46h78v-46zm96 0v46h78v-46zm-192 64v46h78v-46zm96 0v46h78v-46zm96 0v46h78v-46zm-192 64v46h78v-46zm96 0v46h19.3l32-32H359v-14zm96 0v14h78v-14zM27.22 297l24.11 108.5C76.75 398.1 105.7 391 128 391c24.2 0 46.2 8.6 67.2 16.6 21 8 41 15.4 60.8 15.4 19.8 0 39.8-7.4 60.8-15.4 19-7.2 38.9-15 60.5-16.4l-44.1-14.7 5.6-17 36.2 12V345h-17v-18h17v-30h-35.3l-32 32H154.4l-16-32zM393 297v30h17v18h-17v26.5l36.2-12 5.6 17-44 14.7c12.1.7 25.7 3.1 39.4 6.2 5.4-7.1 10.8-15.3 16.1-24 14.9-24.9 28.2-53.9 36.8-76.4zM128 407c-24.2 0-56.26 8.3-83.09 16.4-10.02 3-19.26 6-26.91 8.7v19c8.36-3 19.57-6.7 32.11-10.5C76.28 432.7 108.2 425 128 425c19.8 0 39.8 7.4 60.8 15.4s43 16.6 67.2 16.6c24.2 0 46.2-8.6 67.2-16.6 21-8 41-15.4 60.8-15.4 19.8 0 51.7 7.7 77.9 15.6 12.5 3.8 23.7 7.5 32.1 10.5v-19c-7.7-2.6-16.9-5.7-26.9-8.7-26.8-8.1-58.9-16.4-83.1-16.4-24.2 0-46.2 8.6-67.2 16.6-21 8-41 15.4-60.8 15.4-19.8 0-39.8-7.4-60.8-15.4S152.2 407 128 407zm0 36c-24.2 0-56.26 8.3-83.09 16.4-10.02 3-19.26 6-26.91 8.7v19c8.36-3 19.57-6.7 32.11-10.5C76.28 468.7 108.2 461 128 461c19.8 0 39.8 7.4 60.8 15.4s43 16.6 67.2 16.6c24.2 0 46.2-8.6 67.2-16.6 21-8 41-15.4 60.8-15.4 19.8 0 51.7 7.7 77.9 15.6 12.5 3.8 23.7 7.5 32.1 10.5v-19c-7.7-2.6-16.9-5.7-26.9-8.7-26.8-8.1-58.9-16.4-83.1-16.4-24.2 0-46.2 8.6-67.2 16.6-21 8-41 15.4-60.8 15.4-19.8 0-39.8-7.4-60.8-15.4S152.2 443 128 443z" /></symbol><symbol id="fishing" viewBox="0 0 512 512" fill="currentColor"><path fill="currentColor" d="M459.36 43.126c-52.275 8.712-112.776 46.666-171.8 96.906-52.19 44.424-102.796 98.724-142.838 152.305l18.672 15.12c13.228-17.734 27.73-35.612 43.078-53.196l-7.84-8.214 13.02-12.43c4.962 5.48 10.23 10.624 15.588 15.98-11.517 38.772-39.2 79.74-72.682 112.528 4.815 3.77 9.285 9.016 11.818 13.726 36.024-34.846 65.698-78.494 78.332-122.087 43.844-16.906 66.78-48.94 89.637-90.875 59.482-8.695 102.554-40.688 126.98-69.985 5.128 13.79 10.162 27.596 12.97 41.098 3.867 18.583 3.758 36.084-4.987 53.32-15.826 31.187-45.75 46.012-69.05 61.634-11.65 7.81-22.287 15.994-26.587 28.74-4.3 12.746-.336 27.582 11.634 44.29 12.763 17.813 31.426 30.763 44.025 43.56 3.362 3.415 6.242 6.77 8.558 10.064 2.087-.42 4.24-.644 6.445-.644 5.573 0 10.836 1.412 15.457 3.888-.13-.373-.255-.748-.394-1.117-3.633-9.606-10.07-17.534-17.24-24.818-14.343-14.568-32.06-27.236-42.22-41.418-10.282-14.353-11.195-22.164-9.208-28.054 1.987-5.89 8.8-12.334 19.553-19.543 21.504-14.418 56.188-31.21 75.08-68.44 10.993-21.667 10.92-44.166 6.56-65.128-7.15-32.718-19.584-59.43-32.56-87.21zm-12.798 13.172l7.666 16.46c-19.566 27.352-61.308 63.002-121.12 72.202l-4.183-7.598c37.565-29.052 74.82-51.47 106.934-63.097l-4.896-11.07zm-138.37 82.662c3.517 5.194 7.076 10.895 9.946 16.133-21.795 39.982-40.676 66.46-78.537 81.41l-8.94-8.94c22.38-23.795 48.04-48.565 71.984-69.115l-5.57-7.723zM132.14 305.31l-8.81 10.88 23.316 18.88 8.808-10.882zM112 330.18L17.338 447.088c.033.307.18 1.134.828 2.404 1.395 2.734 4.697 6.665 8.582 9.812 3.886 3.146 8.42 5.56 11.383 6.355 1.378.37 2.216.34 2.524.307l49.72-61.403c-2.815-11.952-.31-25.042 7.965-35.26 8.273-10.218 20.556-15.395 32.833-15.127l4.143-5.115zm17.99 41.866c-6.608.054-13.126 2.98-17.66 8.58-8.06 9.955-6.555 24.29 3.4 32.35 9.955 8.06 24.29 6.552 32.35-3.403.47-.58.904-1.178 1.31-1.787l17.537 3.23-7.062 38.354 17.7 3.26 10.325-56.057-35.19-6.48c-1.09-4.877-3.79-9.44-8.023-12.868-4.355-3.526-9.548-5.222-14.687-5.18zm314.343 20.918c-8.39 0-15 6.61-15 15 0 5.16 2.507 9.642 6.385 12.332-.485 4.442-1.343 9.902-2.932 15.05-3.453 10.063-8.195 17.16-17.492 15.186-7.036-2.698-7.764-9.982-7.37-16.176l12.636-.213-26.694-40.82c-1.9 6.86-5.49 34.502-3.615 50.008.625 4.574 2.016 9.724 5.355 14.466 3.338 4.742 8.884 8.768 15.767 10.304 10.428 2.328 20.3-.8 26.63-6.65 6.33-5.85 9.723-13.474 11.984-20.795 2.397-7.764 3.458-15.483 3.94-21.088 3.32-2.733 5.407-6.887 5.407-11.603 0-8.39-6.61-15-15-15z" /></symbol><symbol id="salvage" viewBox="0 0 512 512" fill="currentColor"><path fill="currentColor" d="M94.371 87.72l-14.676 26.54-40.927-24.873L20.07 120.15l42.192 25.641-14.575 26.357 15.752 8.71 46.684-84.426zM112 128c-12.406 17.74-28.85 57.069-31.646 80.46-1.51 12.633.156 22.758 2.863 26.73 1.353 1.985 2.479 2.81 4.902 3.314 2.424.504 6.516.344 12.47-1.736l12.307-4.301-.341 13.033c-.303 11.499 4.752 25.295 12.767 38.895 2.02-17.074 8.016-34.148 14.38-51.221-3.64 27.491-2.424 52.21 2.58 74.762 5.335 6.22 11.051 12.027 16.863 17.103 12.204 10.66 24.815 18.15 32.767 20.356 3.976 1.103 6.375.725 6.908.488.533-.237.76.118 1.239-2.805 1.542-9.415.807-30.268 1.867-55.385 1.003-23.768 5.305-54.726 14.319-83.528C197.233 181.141 160.156 136.151 112 128zm118.8 88.178c-5.788 19.743-8.61 39.331-10.005 57.353l9.666 17.95-10.805 4.714c-.187 7.113-.234 13.586-.285 19.766l19.652-8.576.092.17 33.059-14.541-.043-.08 93.627-40.862-7.201-16.498-94.989 41.457zm178.991 48.681c-44.479 57.958-86.364 118.263-184.195 170.905 1.367 1.082 2.706 2.157 4.013 3.199C239.647 446.963 248.1 453 256 453c7.9 0 16.353-6.037 26.39-14.037 10.038-8 21.66-17.963 37.61-17.963s27.572 9.963 37.61 17.963C367.646 446.963 376.1 453 384 453c1.082 0 2.174-.124 3.28-.34a748.512 748.512 0 0 0 4.878-22.088l-18.887-31.648 18.26-13.344-16.855-15.451 29.488-17.693c3.11-29.2 4.82-58.325 5.627-87.577zm17.697 9.9c-1.878 54.857-7.063 109.735-19.025 165.718.642-.505 1.273-.992 1.928-1.514 8.532-6.8 18.212-15.017 30.72-17.328l7.094-4.451c.06-4.398.102-8.788.115-13.163l-13.947-2.99s6.643-16.46 13.211-32.105c-1.693-33.026-6.783-64.837-20.096-94.166zm-146.754 34.153l-33.058 14.541 30.902 57.39a407.377 407.377 0 0 0 28.238-23.491zM139.338 331.25l-15.188 6.629 7.2 16.498 22.902-9.996a189.539 189.539 0 0 1-6.947-5.783 212.624 212.624 0 0 1-7.967-7.348zm-44.631 49.92c-2.589.006-5.186.17-7.824.549-3.313.677-6.773 1.252-9.541 3.2 1.69 2.914 4.871 5.5 7.146 7.085 6.59 4.538 17.22 9.18 29.512 12.04 12.292 2.863 23.877 3.394 31.793 2.233 3.313-.677 6.771-1.253 9.539-3.2-1.694-2.913-4.87-5.5-7.144-7.085-6.59-4.538-17.218-9.177-29.51-12.039-8.513-1.382-16.205-2.8-23.971-2.783zm60.625 21.906c.13.305.063.281.121.03.059-.252.128-.244-.121-.03zm-86.457-.457c-2.918 6.024-5.2 12.191-6.947 18.436A43.474 43.474 0 0 1 64 421c15.95 0 27.572 9.963 37.61 17.963C111.646 446.963 120.1 453 128 453c6.132 0 12.607-3.657 19.887-9.025 1.978-6.92 3.63-13.802 4.754-20.66a60.452 60.452 0 0 1-4.235.77c-10.999 1.614-24.335.786-38.488-2.509-14.153-3.295-26.483-8.443-35.639-14.748a55.04 55.04 0 0 1-5.404-4.209zM64 439c-13.413 0-26.972 6.374-39 13.35v21.064c.916-.582 1.815-1.16 2.768-1.746C40.264 463.988 56.099 457 64 457c7.9 0 16.353 6.037 26.39 14.037 10.038 8 21.66 17.963 37.61 17.963s27.572-9.963 37.61-17.963C175.646 463.037 184.1 457 192 457c7.9 0 16.353 6.037 26.39 14.037 10.038 8 21.66 17.963 37.61 17.963s27.572-9.963 37.61-17.963C303.646 463.037 312.1 457 320 457c7.9 0 16.354 6.037 26.39 14.037 10.038 8 21.66 17.963 37.61 17.963s27.572-9.963 37.61-17.963C431.646 463.037 440.1 457 448 457c7.9 0 23.736 6.989 36.232 14.668.953.585 1.852 1.164 2.768 1.746V452.35c-12.028-6.976-25.587-13.35-39-13.35-15.95 0-27.572 9.963-37.61 17.963C400.354 464.963 391.9 471 384 471c-7.9 0-16.353-6.037-26.39-14.037-10.038-8-21.66-17.963-37.61-17.963s-27.572 9.963-37.61 17.963C272.354 464.963 263.9 471 256 471c-7.9 0-16.353-6.037-26.39-14.037-10.038-8-21.66-17.963-37.61-17.963s-27.572 9.963-37.61 17.963C144.354 464.963 135.9 471 128 471c-7.9 0-16.353-6.037-26.39-14.037C91.571 448.963 79.95 439 64 439z" /></symbol><symbol id="sounder" viewBox="0 0 512 512" fill="currentColor"><path fill="currentColor" d="M252.78 20.875c-1.302.012-2.6.03-3.905.063-37.928.974-76.148 11.153-111.28 31.437C25.164 117.285-13.41 261.322 51.5 373.75s208.946 151.036 321.375 86.125c77.7-44.86 120.1-127.513 117.47-211.406-3.563 65.847-35.898 128.573-91 169.374-10.828 9.62-22.774 18.315-35.814 25.844-103.68 59.86-235.983 24.4-295.842-79.282-59.86-103.68-24.43-235.984 79.25-295.844 35.64-20.576 74.67-29.88 112.968-29.03 63.304 1.4 124.623 30.57 165.438 82.53l-32.594 23.032c-33.27-42.835-84.01-66.6-136.063-67-.96-.008-1.91-.012-2.875 0-.964.01-1.943.038-2.906.062-28.006.717-56.222 8.215-82.156 23.188-82.99 47.914-111.508 154.322-63.594 237.312 47.914 82.99 154.32 111.51 237.313 63.594 51.37-29.66 81.862-81.724 86.28-136.78-12.53 45.37-42.32 86.745-85.438 114.186-.02.013-.043.018-.062.03l-.344.22c-3.16 2.147-6.42 4.216-9.78 6.156-74.245 42.865-168.918 17.494-211.782-56.75-42.864-74.243-17.493-168.917 56.75-211.78 23.2-13.396 48.39-20.122 73.375-20.782 47.953-1.266 95.138 19.858 125.968 59.156l-39.844 28.156c-20.232-24.32-50.055-37.79-80.594-38.03-1.17-.01-2.33 0-3.5.03-17.035.432-34.176 4.995-49.938 14.094-50.435 29.12-67.806 93.877-38.687 144.313 29.12 50.434 93.908 67.806 144.344 38.686 21.245-12.267 36.623-30.85 45.124-52.03-18.815 21.064-44.364 36.888-73.938 44.155-.04.013-.084.02-.125.033-37.507 10.787-78.796-4.816-99.217-40.188-24.07-41.688-9.845-94.712 31.843-118.78 13.028-7.523 27.143-11.314 41.156-11.69 25.66-.685 50.898 10.098 68.188 30.25l-41 28.97c-5.497-4.796-12.664-7.72-20.53-7.72-17.277 0-31.283 14.007-31.283 31.282 0 17.276 14.004 31.282 31.282 31.282 17.277 0 31.28-14.007 31.28-31.283 0-1.187-.06-2.347-.188-3.5l120.094-57.312 4.03-1.75-.06-.156 62.25-29.72 9.25-4.438-5.282-8.812-19.97-33.375-5.155-8.625-8.25 5.813-8.095 5.718c-45.9-58.864-116.14-91.053-187.844-90.405z" /></symbol><symbol id="stock" viewBox="0 0 512 512" fill="currentColor"><path fill="currentColor" d="M41 41v62h30V41H41zm48 0v62h30V41H89zm48 0v62h30V41h-30zm222 7v71H16v18h343v174H16v18h343v167h18v-39h62v39h18V329h39v-18h-39V137h39v-18h-39V48h-18v71h-62V48h-18zM185 73v30h158V73H185zm192 64h62v46h-62v-46zm-240 16v142h46V153h-46zm-41 16c-12.81 0-23 10.19-23 23s10.19 23 23 23 23-10.19 23-23-10.19-23-23-23zm105 16v110h110V185H201zm176 16h62v46h-62v-46zM41 233v62h78v-62H41zm336 32h62v46h-62v-46zm0 64h62v46h-62v-46zm-137 24c-8.39 0-15 6.61-15 15s6.61 15 15 15 15-6.61 15-15-6.61-15-15-15zm137 40h62v46h-62v-46zm-352 8v94h254v-94H25zm228.977 14.23 4.046 17.54-208 48-4.046-17.54 208-48zM297 449v46h46v-46h-46z" /></symbol><symbol id="sail" viewBox="0 0 512 512" fill="currentColor"><path fill="currentColor" d="M238 20v16.79c4.8-.32 9.6-.53 14.3-.6 7.3-.11 14.5.1 21.7.57V20zm19 33.94h-4.6c-24.3.39-48 4.63-79.2 12.5-.4 13.8-1.8 27.47-3.9 42.43 69.7-18.43 109.6-18.78 175.1-.1-2-15.74-8.3-28.86-16-44.46-25.7-6.71-48.2-10.27-71.4-10.37zm.3 58.26c-6.4.1-12.8.4-19.3 1v19c9-.7 17.7-1.1 26.3-1.1 3.3 0 6.5 0 9.7.1v-18.3c-5.6-.5-11.1-.7-16.7-.7zm6.8 36.6c-32.8.2-68.7 5.7-114.9 16.4-.8 109-25 203.2-60.32 288.3 106.22-24.2 242.42-24.3 343.72 1.3-12.6-138.6-29.3-202.7-68.1-290.9-36.4-10-67.1-15.2-100.4-15.1zM103 164.7v18h27.9c.2-6 .3-12 .4-18zm281.5 0c2.6 6.1 5.1 12.1 7.6 18H409v-18zM46 423v18h28.76c2.42-6 4.79-12 7.09-18zm401.7 0c.6 5.9 1.2 11.9 1.8 18H468v-18zm-187.4 30.6c-7.4 0-14.9.1-22.3.3v38.3h36v-38.5c-4.6 0-9.1-.1-13.7-.1z" /></symbol><symbol id="bucket" viewBox="0 0 512 512" fill="currentColor"><path fill="currentColor" d="M201 49v30h110V49H201zm-18 6.41c-30.6 2.78-54.5 19.59-70.3 41.3-15.86 21.89-24.24 48.49-25.51 72.79 2.57-1.5 5.57-2.5 8.81-2.5 3.41 0 6.6 1.1 9.2 2.8 1.3-20.7 8.8-44.2 22.1-62.5 13.1-18.06 31.3-31.22 55.7-33.82V55.41zm146 0v18.07c24.4 2.6 42.6 15.76 55.7 33.82 13.3 18.3 20.8 41.8 22.1 62.5 2.6-1.7 5.8-2.8 9.2-2.8 3.2 0 6.2 1 8.8 2.5-1.3-24.3-9.6-51-25.5-72.79C383.5 75 359.6 58.19 329 55.41zM256 137c-43.5 0-82.8 5.4-110.6 13.7-13.8 4.1-24.8 9.1-31.6 14-3.3 2.3-5.5 4.4-6.8 6.3.5.4.9.8 1.4 1.2 2.1 2 3.8 4.3 5.2 6.8 12.4-7.4 27.2-13.1 43.5-17.7C186.6 153 221.3 149 256 149s69.4 4 98.9 12.3c16.3 4.6 31.1 10.3 43.5 17.7 1.4-2.5 3.1-4.8 5.2-6.8.5-.4.9-.8 1.4-1.2-1.3-1.9-3.5-4-6.8-6.3-6.8-4.9-17.8-9.9-31.6-14-27.8-8.3-67.1-13.7-110.6-13.7zm0 30c-33.3 0-66.6 4-94.1 11.7-14.2 4-26.8 9.1-37 14.9 5.8 2.7 12.7 5.4 20.5 7.7 27.8 8.3 67.1 13.7 110.6 13.7s82.8-5.4 110.6-13.7c7.8-2.3 14.7-5 20.5-7.7-10.2-5.8-22.8-10.9-37-14.9C322.6 171 289.3 167 256 167zM96 185.3h.03H96zm0 0c-.06 0-.07 0-.07.1-.72.6-1.94 2.3-3.04 4.7C90.7 195 89 202.8 89 211.5s1.7 16.5 3.86 21.4c1.1 2.4 2.32 4.1 3.04 4.7l.1.1c.1 0 .1 0 .1-.1.72-.6 1.94-2.3 3.04-4.7 2.16-4.9 3.86-12.7 3.86-21.4s-1.7-16.5-3.86-21.4c-1.1-2.4-2.32-4.1-3.04-4.7l-.1-.1zm320 0l-.1.1c-.7.6-1.9 2.3-3 4.7-2.2 4.9-3.9 12.7-3.9 21.4s1.7 16.5 3.9 21.4c1.1 2.4 2.3 4.1 3 4.7l.1.1.1-.1c.7-.6 1.9-2.3 3-4.7 2.2-4.9 3.9-12.7 3.9-21.4s-1.7-16.5-3.9-21.4c-1.1-2.4-2.3-4.1-3-4.7l-.1-.1zm-295 26.3c0 5.5-.5 10.8-1.5 15.7 32.7 15 84.7 23.7 136.5 23.7s103.8-8.7 136.5-23.7c-1-4.9-1.5-10.2-1.5-15.7-5.8 2.5-12.2 4.9-19.3 7-30.1 9-70.8 14.4-115.7 14.4-44.9 0-85.6-5.4-115.7-14.4-7.1-2.1-13.5-4.5-19.3-7zm-7.6 32.9c-.6.9-1.2 1.9-1.8 2.7l17.7 151c6.7 3 13.6 5.7 20.7 8.1l-13.9-153.1c-8-2.5-15.7-5.5-22.7-8.7zm285.2 0c-6.8 3.1-14.2 6-22.1 8.5l-10.2 108.4c9.1-1.3 15.2-5.3 22-10.5l12.2-103.7c-.7-.8-1.3-1.8-1.9-2.7zm-40.7 13.7c-14.2 3.5-29.5 6-45.4 7.8l-7.3 153.2c13-1.9 25.8-4.5 38.2-7.8l14.5-153.2zm-203.2.2l4.7 51.7c14.5 5.6 38.2 9 55.6 8.6v-51.3c-21.2-1.6-41.6-4.6-60.3-9zm139.7 9.2c-12.6 1-25.5 1.4-38.4 1.4-7.7 0-15.4-.2-23-.5v153.7c18.1 1.1 36.2.8 54.1-.9l7.3-153.7zm-133.1 62.5l7.4 81.8c15.1 4.1 30.6 7 46.3 8.8v-83.9c-16.8.7-36.8-1.3-53.7-6.7zm224.3 43.6c-6 3-12.9 5.3-21.1 6l-2.5 26.1c7.1-2.4 14-5 20.7-7.8l2.9-24.3zm-5.3 44.7c-75.3 29-169.8 31.5-248.6.3l4.9 41.7c6.5 8.1 21.9 16.5 42.7 21.9 22 5.7 49.3 8.7 76.7 8.7 27.4 0 54.7-3 76.7-8.7 20.8-5.4 36.2-13.8 42.7-21.9l.4-3.4a10.88 13.34 0 0 1-6.1 2.3 10.88 13.34 0 0 1-10.9-13.3 10.88 13.34 0 0 1 10.9-13.3 10.88 13.34 0 0 1 8.4 4.8l2.2-19.1zm-226.5 17.4a10.88 13.34 0 0 1 10.9 13.3 10.88 13.34 0 0 1-10.9 13.3 10.88 13.34 0 0 1-10.9-13.3 10.88 13.34 0 0 1 10.9-13.3zm167.5 11.3a10.88 13.34 0 0 1 10.9 13.3 10.88 13.34 0 0 1-10.9 13.3 10.88 13.34 0 0 1-10.9-13.3 10.88 13.34 0 0 1 10.9-13.3zm-123.2.7a10.88 13.34 0 0 1 10.9 13.3 10.88 13.34 0 0 1-10.9 13.3 10.88 13.34 0 0 1-10.9-13.3 10.88 13.34 0 0 1 10.9-13.3zm63.2 4.9a10.88 13.34 0 0 1 10.9 13.3 10.88 13.34 0 0 1-10.9 13.3 10.88 13.34 0 0 1-10.9-13.3 10.88 13.34 0 0 1 10.9-13.3z" /></symbol><symbol id="rope" viewBox="0 0 512 512" fill="currentColor"><path fill="currentColor" d="M248.9 57.48c0 3.7.2 7.9 1.1 12.6 20.6-.3 43 .3 61.4 2.1-.4-4.3-.4-8.3.2-12.1-22.7-2.4-41.8-3.3-62.7-2.6zm-18 1c-30.5 2.3-57.8 7.8-78.9 15.2 1.5 2.6 3.5 5.7 5.6 9.2 18.1-5.9 44.5-10.2 74.3-12-.7-4.6-1-8.8-1-12.4zm98.5 4.2c-.5 3.2-.4 7.1.6 11.9 17.3 2.8 31 6.6 39.8 11.1 6.2-2.2 12.7-3.5 19-4.1-18.7-10.1-40.6-15.6-59.4-18.9zm-194.2 18c-7.4 3.7-13.5 7.6-17.9 11.4-6.8 6-9.2 11.22-9.2 15.82 2.9 14.4 16.6 21.4 28 26.7 3.6-7.3 7.9-14.2 13.3-20.3-10.4-4.1-15.9-8.9-16-13.8 0-3.42 2.6-6.82 7.6-10.12-2.1-3.4-4.1-6.6-5.8-9.7zm243.9 20.92c-3.4 5.5-13.3 10.6-28.4 14.9 2.5 8.6 3.3 17 3.6 25.4 15.8-5 33.1-11.3 45.4-21.9 5.4-5.5 10.7-12.1 8.6-19.4-9.6-2.12-19.9-1.52-29.2 1zm-203.6 13.8c-13.2 8.3-21.9 21.6-27.6 37.8.9 14.7 1.6 34.9 13 45.5 4.4-31.8 21.3-64.2 39.6-81.5-8.2-7.8-16.5-7.1-25-1.8zm157.5 5.3c-17.9 3.5-39.2 5.8-61.7 6.7-6.6 12.4-6.9 17.5-8.3 27.4 26.7-.5 51.7-3.5 73.2-8.3-.2-9-.3-17.6-3.2-25.8zm-116.2 6c-9.2 7.6-16.3 15.7-21.7 24 15.4 2.3 32.1 3.8 49.7 4.2 1.5-9.6 2.2-16.8 6.4-27.1-11.7 0-23.3-.4-34.4-1.1zm-120.36.1c-10.37 22.3 13.36 36.6 28.26 44 1.2-6.5 2.8-13.1 4.8-19.4-13-6.4-25.3-13.4-33.06-24.6zm318.16 3.9c-9.5 8.9-22 15.9-32 20.2 2.9 10 3.6 20.3 1 29.7 11.6-4.6 21-9.8 27.4-15.2 7.8-6.4 11-12.5 11.2-18.2.2-5.1-2.1-10.5-7.6-16.5zm-48.9 26.5c-19.5 6.4-42.7 11.1-68.1 13.6-8.2 7.1-8.3 18.1-7.2 27.2 24.3-1.2 46.8-4.3 66-9 10.2-11.2 13-18.5 9.3-31.8zm-279.88 7.4c-16.43 29.7 13.58 45.8 34.28 54.7.2-9.6.7-19.7 1.8-29.8-13.9-7.3-26.6-14.2-36.08-24.9zm348.98.6c-6.3 9.9-14.8 16.8-24 22.2 2.1 7.4 2.3 14.4.5 21.1 11.6-6.9 26.5-19.5 26.6-32.6 0-3.5-1-7-3.1-10.7zm-248.4 2.4c-2.8 7.2-4.7 14.4-6 21.8 5.1 1.1 10.4 2.1 15.9 3.1.4-8.7 2.7-16 7.3-22.4-5.9-.7-11.6-1.5-17.2-2.5zm39.8 4.5c-7.2 6.4-13 14.6-11.9 23 20.9 2.4 38.8 3.5 58 3.4-.6-9.6-.5-17.9 2.6-26-16.3.7-33.6.5-48.7-.4zM63.79 194.2c-5.2 10.1-1.05 22.2 4.29 29.4 1.34-4 2.89-8.8 4.97-14.3-4.05-4.7-7.22-9.7-9.26-15.1zm330.81 1.4c-21.7 8.8-47.2 14.4-67.5 17.2-6.3 6.7-3.7 16-2.4 23.4 24.5-3.9 46.3-9.7 64.1-16.8 2.8-7.6 7.3-16.4 5.8-23.8zm-255.5 3c-1.7 20.8-1.1 41.8-.9 58.8 4.9 20.2 23.5 7.1 23.5 4.4-.3-12.2-1.8-27.1-1.7-43.3-10.2-5.3-16.7-11.2-20.9-19.9zm303.2 8.4c-.9 1-1.8 1.9-2.8 2.8 1.4 10.5 1.7 22.4 1.4 32 4.7-5.6 7-11.1 7.3-16.7.3-5.8-1.5-11.8-5.9-18.1zm-264 .4c-.5 9.6-.3 19.1.2 28.3 10.6 1.8 21.9 3.3 33.6 4.3-2.1-9.6-2.2-18.6 2-26.8-12.5-1.4-24.4-3.4-35.8-5.8zm127.8 7.6c-25.5 1.7-47.4 1.9-70.7.3-9.1 6.9-6.9 18.2-3.9 26 25.4 1.1 51.8 0 75.3-2.7-1.3-8.4-2.6-15.9-.7-23.6zm-218.49 7.1c-1.93 5.7-3.42 10.6-5.27 15.4 13.3 9.2 24.56 15.3 37.86 20.8-.1-6-.2-12.6-.3-19.6-12.4-4.8-23.26-10.3-32.29-16.6zm335.09.6c-16.5 9.8-33.3 16.3-50.3 21.3-1.4 11.2-4.9 22-1.1 31.8 16.4-4 32.7-9.4 46.9-16.9 4.9-11.3 5.1-26.1 4.5-36.2zm38.3 23.7c1.3 4.8 1.8 9.9 1.7 15 6.7-3.2 13.7-3.8 20.1-1.2 0-6.3-.8-12.6-2.4-18.8-5.2-14.1-21.7-5.2-19.4 5zM53.99 234.8c-3.31 5.4-4.88 10.7-4.88 16 2.71 17.2 12 26.6 24.31 35.3-.92-10.1 1.9-20.1 7.91-27.4-10.73-7.3-20.11-14.4-27.34-23.9zm298.81 14.3c-18 4.1-37.6 7.2-58.5 8.9-7.4 7.5-7.7 18.4-4.3 27.6 22.7-.5 44-2.7 63.2-6.1-1.8-10-1.6-21.5-.4-30.4zm-173.4 5c.5 7.1-.1 15.4-4 20.9 5.1 1.1 10.4 2.2 15.8 3.2-1.1-7.9-1.2-15.3 1.5-22.1-4.5-.6-9-1.3-13.3-2zm32.7 4c-5.8 6.5-3.4 16.3-1.8 23.1 21.7 2.7 40.8 4.2 60.9 4.5-1.8-9.2-1.6-18.1 1.2-26.4-20.1.8-42.1.3-60.3-1.2zm235.3 2.6c-11.1 9.2-24.8 16.7-36 21.3-2.2 7-.4 13.4 1.2 19.6 14.3-6.1 26-13 34.7-20.2-.5-7 1.4-14.4.1-20.7zm-349.96 7c-9.27 8.4-5.52 22.6-2.7 30.7 13.96 6.6 29.76 11.9 43.16 15.6-2.4-10.8-2.3-20.6 2.9-29.3-15.8-5.2-29.9-10.3-43.36-17zm375.86 8.8c-20.1 14.4-27.9 35-44.1 52.7 2.7 7 6.2 13.1 9.2 19.4 20.3-20.6 36.1-43.9 42-68-1.9-2.2-4.5-4.7-7.1-4.1zm-80.9 12.2c-20.7 6.3-44.7 10.8-70.9 13.2-3.9 7.1-.5 16.1 1.7 22.5 27.1-3.5 51.7-9.2 72.5-16.3-1.8-6.8-3.4-12.9-3.3-19.4zm-232.9 1.2c-9 9-3.9 22-.3 29.1 17.7 3.7 37 6.4 57.4 8-2.8-9.1-3-18.6.4-26.8-20.3-2.4-39.6-5.9-57.5-10.3zm77.9 12.3c-7.9 6.9-4.9 18.4-.6 26 22.7.8 47.2.1 68.1-1.8-2.4-7.7-4-15.8-2.9-23.2-23.6.8-43.5.6-64.6-1zM51.5 359c.46 7.7 3.53 15.5 6.97 21.5 19.87-17.9 41.63-25.4 65.13-20.2.9-6.9 4.6-13.9 8.8-18.6-28.2-7.4-60.89.3-80.9 17.3zm362.8-15.1c-10.8 9.8-22.9 19-35.6 27.2 3.4 5.9 7.6 11.7 10.4 17.2 12.5-8.1 24.4-17 35.4-26.7-2.2-4.4-8.1-19.4-10.2-17.7zm-262.2 4.6c-6.4 4.7-11.1 10.2-10.8 17.5 18.5 7.5 37.1 19.4 56.3 31.2 1.3-6 3.5-14.1 6.3-19.6-16.5-10.3-33.6-21.3-51.8-29.1zM36.81 376.4c-6.69 11.2-9.67 24.8-6.04 38.5 1.92 7.2 5.61 14.2 11.05 20.8 3.15-7.2 6.85-12.5 13.04-15.9-4.23-6.3-6.36-13.8-5.46-20.8-5.67-6.8-9.89-14.7-12.59-22.6zm326.49 4.1c-19.4 11-39.4 19.7-57.8 24.9-1.8 5.3-2.4 12.2-.5 20.9 22.2-5.6 45.9-15.5 68.7-28.6-3.3-6.4-7-11.5-10.4-17.2zm-144.2 6.4c-3.1 5.6-5.1 11.7-3.4 21.2 22.4 12.8 46.1 23 71.6 21.2-1.4-7.1-1.7-13.8-1-20-22 1.6-43.9-8.6-67.2-22.4zM61.46 453c4.6 3.2 10.89 1.9 13.98-2.7 3.09-4.7 1.78-10.9-2.91-14-11.83-7.4-18.76 11.4-11.07 16.7z" /></symbol><symbol id="wind" viewBox="0 0 24 24" fill="none" stroke="currentColor" stroke-width="2" stroke-linecap="round" stroke-linejoin="round"><path d="M12.8 19.6A2 2 0 1 0 14 16H2" />
  <path d="M17.5 8a2.5 2.5 0 1 1 2 4H2" />
  <path d="M9.8 4.4A2 2 0 1 1 11 8H2" />
</symbol><symbol id="crew" viewBox="0 0 24 24" fill="none" stroke="currentColor" stroke-width="2" stroke-linecap="round" stroke-linejoin="round"><path d="M16 21v-2a4 4 0 0 0-4-4H6a4 4 0 0 0-4 4v2" />
  <path d="M16 3.128a4 4 0 0 1 0 7.744" />
  <path d="M22 21v-2a4 4 0 0 0-3-3.87" />
  <circle cx="9" cy="7" r="4" />
</symbol><symbol id="arrow" viewBox="0 0 24 24" fill="none" stroke="currentColor" stroke-width="2" stroke-linecap="round" stroke-linejoin="round"><path d="M5 12h14" />
  <path d="m12 5 7 7-7 7" />
</symbol><symbol id="plus" viewBox="0 0 24 24" fill="none" stroke="currentColor" stroke-width="2" stroke-linecap="round" stroke-linejoin="round"><path d="M5 12h14" />
  <path d="M12 5v14" />
</symbol><symbol id="close" viewBox="0 0 24 24" fill="none" stroke="currentColor" stroke-width="2" stroke-linecap="round" stroke-linejoin="round"><path d="M18 6 6 18" />
  <path d="m6 6 12 12" />
</symbol><symbol id="check" viewBox="0 0 24 24" fill="none" stroke="currentColor" stroke-width="2" stroke-linecap="round" stroke-linejoin="round"><path d="M20 6 9 17l-5-5" />
</symbol><symbol id="warning" viewBox="0 0 24 24" fill="none" stroke="currentColor" stroke-width="2" stroke-linecap="round" stroke-linejoin="round"><path d="m21.73 18-8-14a2 2 0 0 0-3.48 0l-8 14A2 2 0 0 0 4 21h16a2 2 0 0 0 1.73-3" />
  <path d="M12 9v4" />
  <path d="M12 17h.01" />
</symbol><symbol id="settings" viewBox="0 0 24 24" fill="none" stroke="currentColor" stroke-width="2" stroke-linecap="round" stroke-linejoin="round"><path d="M9.671 4.136a2.34 2.34 0 0 1 4.659 0 2.34 2.34 0 0 0 3.319 1.915 2.34 2.34 0 0 1 2.33 4.033 2.34 2.34 0 0 0 0 3.831 2.34 2.34 0 0 1-2.33 4.033 2.34 2.34 0 0 0-3.319 1.915 2.34 2.34 0 0 1-4.659 0 2.34 2.34 0 0 0-3.32-1.915 2.34 2.34 0 0 1-2.33-4.033 2.34 2.34 0 0 0 0-3.831A2.34 2.34 0 0 1 6.35 6.051a2.34 2.34 0 0 0 3.319-1.915" />
  <circle cx="12" cy="12" r="3" />
</symbol><symbol id="eye" viewBox="0 0 24 24" fill="none" stroke="currentColor" stroke-width="2" stroke-linecap="round" stroke-linejoin="round"><path d="M2.062 12.348a1 1 0 0 1 0-.696 10.75 10.75 0 0 1 19.876 0 1 1 0 0 1 0 .696 10.75 10.75 0 0 1-19.876 0" />
  <circle cx="12" cy="12" r="3" />
</symbol><symbol id="home" viewBox="0 0 24 24" fill="none" stroke="currentColor" stroke-width="2" stroke-linecap="round" stroke-linejoin="round"><path d="M15 21v-8a1 1 0 0 0-1-1h-4a1 1 0 0 0-1 1v8" />
  <path d="M3 10a2 2 0 0 1 .709-1.528l7-6a2 2 0 0 1 2.582 0l7 6A2 2 0 0 1 21 10v9a2 2 0 0 1-2 2H5a2 2 0 0 1-2-2z" />
</symbol><symbol id="expand" viewBox="0 0 24 24" fill="none" stroke="currentColor" stroke-width="2" stroke-linecap="round" stroke-linejoin="round"><path d="M8 3H5a2 2 0 0 0-2 2v3" />
  <path d="M21 8V5a2 2 0 0 0-2-2h-3" />
  <path d="M3 16v3a2 2 0 0 0 2 2h3" />
  <path d="M16 21h3a2 2 0 0 0 2-2v-3" />
</symbol><symbol id="reset" viewBox="0 0 24 24" fill="none" stroke="currentColor" stroke-width="2" stroke-linecap="round" stroke-linejoin="round"><path d="M3 12a9 9 0 1 0 9-9 9.75 9.75 0 0 0-6.74 2.74L3 8" />
  <path d="M3 3v5h5" />
</symbol><symbol id="chat" viewBox="0 0 24 24" fill="none" stroke="currentColor" stroke-width="2" stroke-linecap="round" stroke-linejoin="round"><path d="M2.992 16.342a2 2 0 0 1 .094 1.167l-1.065 3.29a1 1 0 0 0 1.236 1.168l3.413-.998a2 2 0 0 1 1.099.092 10 10 0 1 0-4.777-4.719" />
</symbol><symbol id="star" viewBox="0 0 24 24" fill="none" stroke="currentColor" stroke-width="2" stroke-linecap="round" stroke-linejoin="round"><path d="M11.525 2.295a.53.53 0 0 1 .95 0l2.31 4.679a2.123 2.123 0 0 0 1.595 1.16l5.166.756a.53.53 0 0 1 .294.904l-3.736 3.638a2.123 2.123 0 0 0-.611 1.878l.882 5.14a.53.53 0 0 1-.771.56l-4.618-2.428a2.122 2.122 0 0 0-1.973 0L6.396 21.01a.53.53 0 0 1-.77-.56l.881-5.139a2.122 2.122 0 0 0-.611-1.879L2.16 9.795a.53.53 0 0 1 .294-.906l5.165-.755a2.122 2.122 0 0 0 1.597-1.16z" />
</symbol><symbol id="book" viewBox="0 0 24 24" fill="none" stroke="currentColor" stroke-width="2" stroke-linecap="round" stroke-linejoin="round"><path d="M12 5v16" />
  <path d="M20.001 19A2 2 0 0022 17V5a2 2 0 00-1.999-2L16 3.002A5 5 0 0012 5a5 5 0 00-4-2H4a2 2 0 00-2 2v12a2 2 0 001.999 2H8a5 5 0 014 2 5 5 0 014-2z" />
</symbol><symbol id="clock" viewBox="0 0 24 24" fill="none" stroke="currentColor" stroke-width="2" stroke-linecap="round" stroke-linejoin="round"><circle cx="12" cy="12" r="10" />
  <path d="M12 6v6l4 2" />
</symbol><symbol id="lock" viewBox="0 0 24 24" fill="none" stroke="currentColor" stroke-width="2" stroke-linecap="round" stroke-linejoin="round"><rect width="18" height="11" x="3" y="11" rx="2" ry="2" />
  <path d="M7 11V7a5 5 0 0 1 10 0v4" />
</symbol><symbol id="sun" viewBox="0 0 24 24" fill="none" stroke="currentColor" stroke-width="2" stroke-linecap="round" stroke-linejoin="round"><circle cx="12" cy="12" r="4" />
  <path d="M12 2v2" />
  <path d="M12 20v2" />
  <path d="m4.93 4.93 1.41 1.41" />
  <path d="m17.66 17.66 1.41 1.41" />
  <path d="M2 12h2" />
  <path d="M20 12h2" />
  <path d="m6.34 17.66-1.41 1.41" />
  <path d="m19.07 4.93-1.41 1.41" />
</symbol><symbol id="sound" viewBox="0 0 24 24" fill="none" stroke="currentColor" stroke-width="2" stroke-linecap="round" stroke-linejoin="round"><path d="M11 4.702a.705.705 0 0 0-1.203-.498L6.413 7.587A1.4 1.4 0 0 1 5.416 8H3a1 1 0 0 0-1 1v6a1 1 0 0 0 1 1h2.416a1.4 1.4 0 0 1 .997.413l3.383 3.384A.705.705 0 0 0 11 19.298z" />
  <path d="M16 9a5 5 0 0 1 0 6" />
  <path d="M19.364 18.364a9 9 0 0 0 0-12.728" />
</symbol></svg>
